Parastoo-Regular.glyphspackage
{
glyphname = exclam;
layers = (
{
layerId = m001;
shapes = (
{
closed = 1;
nodes = (
(427.485,60.996,o),
(366.422,1.053,o),
(292.712,1.053,cs),
(220.849,1.053,o),
(157.911,61.158,o),
(157.911,133.027,cs),
(157.911,207.45,o),
(218.165,267.441,o),
(292.712,267.441,cs),
(366.58,267.441,o),
(427.485,208.615,o),
(427.485,134.773,cs)
);
},
{
closed = 1;
nodes = (
(372.897,1525.49,o),
(393.443,1439.71,o),
(393.443,1330.96,cs),
(393.443,1297.61,o),
(391.511,1262.1,o),
(388.386,1226.25,cs),
(329,515,ls),
(328.345,507.135,o),
(313.465,503.444,o),
(298.221,503.444,cs),
(282.208,503.444,o),
(265.793,507.517,o),
(265.038,515.099,cs),
(197.267,1226.05,ls),
(193.359,1265.32,o),
(190.778,1304.79,o),
(190.778,1341.61,cs),
(190.778,1443.78,o),
(210.658,1525.49,o),
(277.229,1525.49,cs),
(306.199,1525.49,ls)
);
}
);
width = 585;
},
{
layerId = "D346AEB9-DD6D-429C-AFEE-90B4948468D3";
shapes = (
{
closed = 1;
nodes = (
(371.734,16.721,o),
(335.803,1.997,o),
(293.409,1.99,cs),
(251.136,1.997,o),
(214.995,17.089,o),
(184.984,47.267,cs),
(154.995,77.755,o),
(140.3,112.834,o),
(140.899,152.501,cs),
(141.633,194.834,o),
(156.725,230.649,o),
(186.176,259.947,cs),
(215.392,288.649,o),
(251.136,303.145,o),
(293.409,303.436,cs),
(335.803,303.145,o),
(371.734,288.675,o),
(401.203,260.024,cs),
(431.068,230.675,o),
(445.973,195.103,o),
(445.92,153.309,cs),
(445.973,111.103,o),
(431.068,75.387,o),
(401.203,46.162,cs)
);
},
{
closed = 1;
nodes = (
(346.938,543.505,ls),
(344.313,523.835,o),
(328.868,514.292,o),
(300.603,514.875,cs),
(267.301,515.63,o),
(249.472,525.152,o),
(247.115,543.441,cs),
(159.346,1224.37,ls),
(131.739,1437.12,o),
(171.034,1543.49,o),
(277.229,1543.49,cs),
(306.199,1543.49,ls),
(410.733,1543.16,o),
(450.775,1436.92,o),
(426.325,1224.77,cs)
);
}
);
width = 586;
}
);
unicode = 33;
}
{
glyphname = period;
layers = (
{
layerId = m001;
shapes = (
{
closed = 1;
nodes = (
(427.485,60.996,o),
(366.422,1.053,o),
(292.712,1.053,cs),
(220.849,1.053,o),
(157.911,61.158,o),
(157.911,133.027,cs),
(157.911,207.45,o),
(218.165,267.441,o),
(292.712,267.441,cs),
(366.58,267.441,o),
(427.485,208.615,o),
(427.485,134.773,cs)
);
}
);
width = 586;
}
);
unicode = 46;
}
{
glyphname = slash;
layers = (
{
layerId = m001;
shapes = (
{
closed = 1;
nodes = (
(210,-96,l),
(89,-96,l),
(657,1554,l),
(778,1554,l)
);
}
);
width = 868;
}
);
unicode = 47;
}
{
glyphname = colon;
layers = (
{
layerId = m001;
shapes = (
{
closed = 1;
nodes = (
(427.485,647.037,o),
(366.422,587.094,o),
(292.712,587.094,cs),
(220.85,587.094,o),
(157.911,647.198,o),
(157.911,719.067,cs),
(157.911,793.491,o),
(218.164,853.482,o),
(292.712,853.482,cs),
(366.579,853.482,o),
(427.485,794.656,o),
(427.485,720.814,cs)
);
},
{
closed = 1;
nodes = (
(427.485,60.996,o),
(366.422,1.053,o),
(292.712,1.053,cs),
(220.849,1.053,o),
(157.911,61.158,o),
(157.911,133.027,cs),
(157.911,207.45,o),
(218.165,267.441,o),
(292.712,267.441,cs),
(366.58,267.441,o),
(427.485,208.615,o),
(427.485,134.773,cs)
);
}
);
width = 585;
}
);
unicode = 58;
}
{
glyphname = guillemetleft;
layers = (
{
layerId = m001;
shapes = (
{
closed = 1;
nodes = (
(110,709,o),
(203,868,o),
(351,956,cs),
(360,958,o),
(366,952,o),
(373,938,cs),
(375,934,o),
(375,931,o),
(374,930,cs),
(293,796,o),
(253,645,o),
(253,478,cs),
(253,311,o),
(297,160,o),
(384,24,cs),
(387,19,o),
(385,13,o),
(378,7,cs),
(371,1,o),
(366,-2,o),
(360,-1,cs),
(219,69,o),
(110,278,o),
(110,486,cs)
);
},
{
closed = 1;
nodes = (
(425,709,o),
(520,868,o),
(668,956,cs),
(677,958,o),
(682,952,o),
(687,938,cs),
(689,934,o),
(690,931,o),
(689,930,cs),
(609,795,o),
(569,644,o),
(569,478,cs),
(569,312,o),
(611,161,o),
(697,24,cs),
(702,19,o),
(701,13,o),
(694,7,cs),
(687,1,o),
(680,-2,o),
(674,-1,cs),
(534,69,o),
(425,279,o),
(425,486,cs)
);
}
);
width = 797;
}
);
unicode = 171;
}
{
glyphname = guillemetright;
layers = (
{
layerId = m001;
shapes = (
{
closed = 1;
nodes = (
(687,278,o),
(578,69,o),
(437,-1,cs),
(431,-2,o),
(426,1,o),
(419,7,cs),
(412,13,o),
(410,19,o),
(413,24,cs),
(500,160,o),
(544,311,o),
(544,478,cs),
(544,645,o),
(504,796,o),
(423,930,cs),
(422,931,o),
(422,934,o),
(424,938,cs),
(431,952,o),
(437,958,o),
(446,956,cs),
(594,868,o),
(687,709,o),
(687,486,cs)
);
},
{
closed = 1;
nodes = (
(372,279,o),
(263,69,o),
(123,-1,cs),
(117,-2,o),
(110,1,o),
(103,7,cs),
(96,13,o),
(95,19,o),
(100,24,cs),
(186,161,o),
(228,312,o),
(228,478,cs),
(228,644,o),
(188,795,o),
(108,930,cs),
(107,931,o),
(108,934,o),
(110,938,cs),
(115,952,o),
(120,958,o),
(129,956,cs),
(277,868,o),
(372,709,o),
(372,486,cs)
);
}
);
width = 797;
}
);
unicode = 187;
}
{
glyphname = "dateseparator-ar";
layers = (
{
layerId = m001;
shapes = (
{
closed = 1;
nodes = (
(157,-199,l),
(55,-168,l),
(611,1457,l),
(713,1426,l)
);
}
);
width = 828;
}
);
unicode = 1549;
}
{
glyphname = "semicolon-ar";
layers = (
{
layerId = m001;
shapes = (
{
closed = 1;
nodes = (
(205.912,489.975,o),
(158.38,564.708,o),
(158.38,654.177,cs),
(158.38,767.775,o),
(200.245,986.203,o),
(384.388,1096.8,cs),
(427.061,1122.47,o),
(459.522,1088.71,o),
(431.23,1066.15,cs),
(353.687,1009.42,o),
(291.385,903.027,o),
(288.092,768.494,c),
(384.446,767.524,o),
(435.485,716.908,o),
(435.485,621.806,cs),
(435.485,557.865,o),
(385.087,489.975,o),
(305.526,489.975,cs)
);
},
{
closed = 1;
nodes = (
(433.803,60.995,o),
(372.739,1.053,o),
(299.029,1.053,cs),
(227.167,1.053,o),
(164.229,61.158,o),
(164.229,133.027,cs),
(164.229,207.45,o),
(224.482,267.441,o),
(299.029,267.441,cs),
(372.898,267.441,o),
(433.803,208.616,o),
(433.803,134.773,cs)
);
}
);
width = 595;
},
{
layerId = "D346AEB9-DD6D-429C-AFEE-90B4948468D3";
shapes = (
{
closed = 1;
nodes = (
(185,511,o),
(133,582,o),
(133,696,cs),
(133,895,o),
(221,1041,o),
(410,1155,cs),
(474,1191,o),
(522,1144,o),
(459,1099,cs),
(390,1048,o),
(302,922,o),
(301,826,c),
(392,812,o),
(452,764,o),
(452,668,cs),
(452,567,o),
(399,511,o),
(295,511,cs)
);
},
{
closed = 1;
nodes = (
(446,69.547,o),
(376.887,2,o),
(293,2,cs),
(212.333,2,o),
(141,70.146,o),
(141,150,cs),
(141,235.165,o),
(207.487,303,o),
(293,303,cs),
(377.421,303,o),
(446,236.802,o),
(446,153,cs)
);
}
);
width = 586;
}
);
unicode = 1563;
}
{
glyphname = "question-ar";
layers = (
{
layerId = m001;
shapes = (
{
closed = 1;
nodes = (
(570,61,o),
(509,1,o),
(435,1,cs),
(363,1,o),
(300,61,o),
(300,133,cs),
(300,207,o),
(360,267,o),
(435,267,cs),
(509,267,o),
(570,209,o),
(570,135,cs)
);
},
{
closed = 1;
nodes = (
(334,1345,o),
(249,1267,o),
(249,1142,cs),
(249,974,o),
(521,896,o),
(521,638,cs),
(521,567,o),
(476,503,o),
(423,488,cs),
(406,483,o),
(397,476,o),
(390,500,cs),
(376,558,ls),
(370,579,o),
(379,577,o),
(392,581,cs),
(423,590,o),
(429,618,o),
(429,634,cs),
(429,826,o),
(90,871,o),
(90,1173,cs),
(90,1376,o),
(229,1514,o),
(428,1514,cs),
(625,1514,o),
(732,1378,o),
(732,1201,cs),
(732,1101,o),
(695,1017,o),
(641,963,c),
(590,993,l),
(618,1042,o),
(632,1085,o),
(632,1121,cs),
(632,1249,o),
(561,1345,o),
(447,1345,cs)
);
}
);
width = 822;
}
);
unicode = 1567;
}
{
glyphname = "hamza-ar";
layers = (
{
anchors = (
{
name = "Anchor-10";
pos = (409.878,1057.02);
},
{
name = "Anchor-7";
pos = (418.36,-48.826);
}
);
layerId = m001;
shapes = (
{
closed = 1;
nodes = (
(569,571,o),
(516,589,o),
(450,589,cs),
(307,589,o),
(242,489,o),
(242,443,cs),
(242,367,o),
(329,319,o),
(416,319,c),
(416,319,o),
(656,365,o),
(698,365,cs),
(711,365,o),
(717,360,o),
(717,350,cs),
(717,340,o),
(711,324,o),
(698,304,cs),
(617,173,l),
(441,163,o),
(272,110,o),
(110,15,c),
(150,202,l),
(158,205,o),
(189,219,o),
(244,241,c),
(179,307,o),
(146,371,o),
(146,432,cs),
(146,598,o),
(287,757,o),
(432,757,cs),
(556,757,o),
(637,700,o),
(684,578,c),
(650,532,l)
);
}
);
width = 827;
}
);
unicode = 1569;
}
{
glyphname = "alef-ar";
layers = (
{
anchors = (
{
name = "Anchor-10";
pos = (206.76,1624.01);
},
{
name = "Anchor-7";
pos = (231.215,-230.841);
}
);
layerId = m001;
shapes = (
{
closed = 1;
nodes = (
(291.284,1381.12,o),
(304,999,o),
(304,187,cs),
(304,93,o),
(269,28,o),
(202,-6,c),
(202,174.89,o),
(182.655,949.333,o),
(128,1389,c),
(243,1512,ls),
(269.077,1538.52,o),
(282.104,1534.32,o),
(285,1486,cs)
);
}
);
width = 464;
}
);
unicode = 1575;
}
{
glyphname = "hah-ar";
layers = (
{
anchors = (
{
name = "Anchor-10";
pos = (597.798,1120.94);
},
{
name = "Anchor-7";
pos = (639.792,-826.821);
}
);
layerId = m001;
shapes = (
{
closed = 1;
nodes = (
(202,-395.164,o),
(494.24,-453,o),
(762,-453,cs),
(905,-453,o),
(1057,-438,o),
(1192,-422,c),
(1192,-423,o),
(1193,-424,o),
(1193,-425,cs),
(1193,-429,o),
(1190,-436,o),
(1186,-446,cs),
(1122,-579,o),
(978,-636,o),
(752,-636,cs),
(352.542,-636,o),
(108,-496.145,o),
(108,-157,cs),
(108,252.352,o),
(427.58,507.14,o),
(776,567,c),
(629.96,596.771,o),
(457.951,647,o),
(368,647,cs),
(294,647,o),
(224,608,o),
(159,527,c),
(100,563,l),
(172.902,741.663,o),
(264.735,833,o),
(388,833,cs),
(440,831,o),
(633,781,o),
(968,684,cs),
(1035,664,o),
(1110,653,o),
(1194,652,cs),
(1203,652,o),
(1208,650,o),
(1208,645,cs),
(1208,644,o),
(1208,642,o),
(1207,640,cs),
(1135,470,l),
(666.309,443.71,o),
(202,227.317,o),
(202,-152,cs)
);
}
);
width = 1318;
}
);
unicode = 1581;
}
{
glyphname = "dal-ar";
layers = (
{
anchors = (
{
name = "Anchor-10";
pos = (475.345,1230.18);
},
{
name = "Anchor-7";
pos = (484.662,-216.64);
}
);
layerId = m001;
shapes = (
{
closed = 1;
nodes = (
(184,249,o),
(268,203,o),
(435,203,cs),
(598.256,203,o),
(841,220.514,o),
(841,330,cs),
(841,457.248,o),
(649.506,625.483,o),
(442,778,c),
(484,963,ls),
(487,975,o),
(490,981,o),
(498,981,cs),
(505,981,o),
(514,977,o),
(525,968,cs),
(808,747,o),
(937,562,o),
(937,353,cs),
(937,106.025,o),
(704.938,0,o),
(413,0,cs),
(211,0,o),
(110,86,o),
(110,258,cs),
(110,314,o),
(117,351,o),
(132,403,c),
(188,393,l),
(186,375,o),
(184,350,o),
(184,338,cs)
);
}
);
width = 1047;
}
);
unicode = 1583;
}
{
glyphname = "reh-ar";
layers = (
{
anchors = (
{
name = "Anchor-10";
pos = (488.105,933.34);
},
{
name = "Anchor-7";
pos = (341.096,-713.978);
}
);
layerId = m001;
shapes = (
{
closed = 1;
nodes = (
(185,-544,o),
(133,-532,o),
(59,-510,cs),
(21,-499,o),
(-1,-487,o),
(-8,-474,cs),
(-13,-465,o),
(-10,-458,o),
(2,-455,cs),
(376,-363,o),
(593,-102,o),
(593,55,cs),
(593,136,o),
(535,237,o),
(418,357,c),
(500,552,ls),
(510,574,o),
(523,574,o),
(541,550,cs),
(643,412,o),
(694,264,o),
(694,106,cs),
(694,-201,o),
(421,-544,o),
(241,-544,cs)
);
}
);
width = 794;
}
);
unicode = 1585;
}
{
glyphname = "seen-ar";
layers = (
{
anchors = (
{
name = "Anchor-10";
pos = (1683.94,1043.52);
},
{
name = "Anchor-7";
pos = (646.427,-790.57);
}
);
layerId = m001;
shapes = (
{
closed = 1;
nodes = (
(1804,2,o),
(1716,53,o),
(1660,155,c),
(1584,52,o),
(1505,-1,o),
(1421,-1,cs),
(1346,-1,o),
(1294,30,o),
(1263,61,c),
(1269,21,o),
(1271,-18,o),
(1271,-55,cs),
(1271,-407,o),
(995,-599,o),
(653,-599,cs),
(291,-599,o),
(110,-460,o),
(110,-181,cs),
(110,-68,o),
(141,60,o),
(204,202,c),
(261,178,l),
(227,61,o),
(210,-26,o),
(210,-94,cs),
(210,-299,o),
(360,-401,o),
(659,-401,cs),
(875,-401,o),
(1088,-319,o),
(1181,-187,c),
(1177,-93,o),
(1118,72,o),
(1010,270,c),
(1094,404,ls),
(1110,429,o),
(1124,430,o),
(1137,405,cs),
(1171,339,o),
(1195,294,o),
(1210,269,cs),
(1237.42,223.959,o),
(1307.02,200.969,o),
(1422.56,200.969,cs),
(1545.71,200.969,o),
(1616.48,255.832,o),
(1636,374,cs),
(1654,478,l),
(1738,466,l),
(1728,387,ls),
(1712.85,261.729,o),
(1781.84,202,o),
(1929,202,cs),
(2031.28,202,o),
(2104,223.913,o),
(2104,293,cs),
(2104,343.718,o),
(2056.17,461.022,o),
(2027,526,c),
(2109,672,ls),
(2121,693,o),
(2131,696,o),
(2140,679,cs),
(2203,559,o),
(2223,450,o),
(2223,327,cs),
(2223,164.146,o),
(2073.23,2,o),
(1921,2,cs)
);
}
);
width = 2333;
},
{
anchors = (
{
name = "Anchor-10";
pos = (1686.47,1126.44);
},
{
name = "Anchor-7";
pos = (636.427,-790.57);
}
);
layerId = "D346AEB9-DD6D-429C-AFEE-90B4948468D3";
shapes = (
{
closed = 1;
nodes = (
(1807,0,o),
(1721,63,o),
(1660,153,c),
(1584,61,o),
(1507,0,o),
(1425,0,cs),
(1381,0,o),
(1336,13,o),
(1292,40,c),
(1286,-387,o),
(1029,-600,o),
(651,-600,cs),
(305.448,-600,o),
(93,-473.097,o),
(93,-170,cs),
(93,-46,o),
(129,98,o),
(200,261,c),
(290,223,l),
(253,131,o),
(235,50,o),
(235,-19,cs),
(235,-214.586,o),
(410.442,-289,o),
(642,-289,cs),
(871,-289,o),
(1066,-224,o),
(1165,-103,c),
(1110,50,o),
(1044,199,o),
(967,324,c),
(1090,530,ls),
(1115.42,571.867,o),
(1127.55,590.752,o),
(1152,550,cs),
(1161,535,o),
(1179,503,o),
(1206,454,cs),
(1258,360,o),
(1298,333,o),
(1430,333,cs),
(1541,333,o),
(1606,389,o),
(1623,493,cs),
(1642,605,l),
(1763,587,l),
(1752,500,ls),
(1739.38,388.731,o),
(1797.61,333,o),
(1935,333,cs),
(2034,333,o),
(2083,359,o),
(2083,409,cs),
(2083,431,o),
(2044,496,o),
(1970,604,c),
(2102,832,ls),
(2124,869,o),
(2135,857,o),
(2156,821,cs),
(2220,716,o),
(2254,591,o),
(2254,447,cs),
(2254,232,o),
(2120,0,o),
(1917,0,cs)
);
}
);
width = 2333;
}
);
unicode = 1587;
}
{
glyphname = "sad-ar";
layers = (
{
anchors = (
{
name = "Anchor-10";
pos = (2047.94,1235.14);
},
{
name = "Anchor-7";
pos = (646.427,-790.57);
}
);
background = {
shapes = (
{
closed = 1;
nodes = (
(1633,483,o),
(1906,749,o),
(2130,749,cs),
(2348,749,o),
(2460,597,o),
(2460,428,cs),
(2460,72,o),
(1984,0,o),
(1618,0,cs),
(1520,0,ls),
(1399,0,o),
(1313,21,o),
(1263,61,c),
(1269,21,o),
(1271,-18,o),
(1271,-55,cs),
(1271,-407,o),
(995,-599,o),
(653,-599,cs),
(291,-599,o),
(110,-460,o),
(110,-181,cs),
(110,-68,o),
(141,60,o),
(204,202,c),
(261,178,l),
(227,61,o),
(210,-26,o),
(210,-94,cs),
(210,-299,o),
(360,-401,o),
(659,-401,cs),
(875,-401,o),
(1088,-319,o),
(1181,-187,c),
(1177,-93,o),
(1118,72,o),
(1010,270,c),
(1094,404,ls),
(1110,429,o),
(1124,430,o),
(1137,405,cs),
(1171,339,o),
(1195,294,o),
(1210,269,cs),
(1235,226,o),
(1307,205,o),
(1423,201,c)
);
},
{
closed = 1;
nodes = (
(1625,201,ls),
(2091,201,o),
(2340,236,o),
(2340,353,cs),
(2340,462,o),
(2230,550,o),
(2080,550,cs),
(1863,550,o),
(1675,353,o),
(1533,201,c)
);
}
);
};
layerId = m001;
shapes = (
{
closed = 1;
nodes = (
(1633,483,o),
(1906,749,o),
(2130,749,cs),
(2348,749,o),
(2460,597,o),
(2460,428,cs),
(2460,72,o),
(1984,0,o),
(1618,0,cs),
(1520,0,ls),
(1399,0,o),
(1313,21,o),
(1263,61,c),
(1324,-344,o),
(1054,-599,o),
(653,-599,cs),
(291,-599,o),
(110,-460,o),
(110,-181,cs),
(110,-68,o),
(141,60,o),
(204,202,c),
(261,178,l),
(227,61,o),
(210,-26,o),
(210,-94,cs),
(210,-299,o),
(360,-401,o),
(659,-401,cs),
(875,-401,o),
(1088,-319,o),
(1181,-187,c),
(1177,-93,o),
(1118,72,o),
(1010,270,c),
(1094,404,ls),
(1110,429,o),
(1124,430,o),
(1137,405,cs),
(1171,339,o),
(1195,294,o),
(1210,269,cs),
(1235,226,o),
(1307,205,o),
(1423,201,c)
);
},
{
closed = 1;
nodes = (
(1625,201,ls),
(2091,201,o),
(2340,236,o),
(2340,353,cs),
(2340,462,o),
(2230,550,o),
(2080,550,cs),
(1863,550,o),
(1675,353,o),
(1533,201,c)
);
}
);
width = 2570;
},
{
anchors = (
{
name = "Anchor-10";
pos = (2050.47,1278.94);
},
{
name = "Anchor-7";
pos = (636.427,-790.57);
}
);
layerId = "D346AEB9-DD6D-429C-AFEE-90B4948468D3";
shapes = (
{
closed = 1;
nodes = (
(1671,709,o),
(1911,893,o),
(2139,893,cs),
(2348.2,893,o),
(2478.01,751.09,o),
(2478.01,532.518,cs),
(2478.01,157.903,o),
(2143.35,0,o),
(1653,0,cs),
(1524,0,ls),
(1428,0,o),
(1348,13,o),
(1292,40,c),
(1286,-387,o),
(1029,-600,o),
(651,-600,cs),
(305,-600,o),
(93,-473,o),
(93,-170,cs),
(93,-46,o),
(129,98,o),
(200,261,c),
(290,223,l),
(253,131,o),
(235,50,o),
(235,-19,cs),
(235,-215,o),
(410,-289,o),
(642,-289,cs),
(871,-289,o),
(1066,-224,o),
(1165,-103,c),
(1110,50,o),
(1044,199,o),
(967,324,c),
(1090,530,ls),
(1113.37,568.943,o),
(1126.55,592.757,o),
(1152,550,cs),
(1161,535,o),
(1179,503,o),
(1206,454,cs),
(1252,370,o),
(1296,340,o),
(1420,339,c)
);
},
{
closed = 1;
nodes = (
(1856,335,ls),
(2165,335,o),
(2323,369,o),
(2323,438,cs),
(2323,534,o),
(2216,588,o),
(2106,588,cs),
(1883,588,o),
(1716,449,o),
(1576,335,c)
);
}
);
width = 2570;
}
);
unicode = 1589;
}
{
glyphname = "ain-ar";
layers = (
{
anchors = (
{
name = "Anchor-10";
pos = (695.211,1390.07);
},
{
name = "Anchor-7";
pos = (654.792,-826.821);
}
);
layerId = m001;
shapes = (
{
closed = 1;
nodes = (
(879,-455,o),
(1045,-440,o),
(1194,-422,cs),
(1194,-423,o),
(1195,-424,o),
(1195,-425,cs),
(1195,-429,o),
(1192,-436,o),
(1188,-446,cs),
(1124,-581,o),
(978,-636,o),
(750,-636,cs),
(348,-636,o),
(110,-514,o),
(110,-151,cs),
(110,62,o),
(225,237,o),
(455,377,c),
(361,482,o),
(334,580,o),
(334,671,cs),
(334,843,o),
(518,1055,o),
(695,1055,cs),
(836,1055,o),
(942,991,o),
(1013,843,c),
(977,800,l),
(879,839,o),
(794,859,o),
(721,859,cs),
(633,859,o),
(562,834,o),
(505,785,cs),
(456,743,o),
(432,706,o),
(432,675,cs),
(432,638,o),
(472,594,o),
(547,536,cs),
(592,501,o),
(629,483,o),
(659,483,cs),
(669,483,l),
(763,497,o),
(857,512,o),
(951,527,c),
(1093,545,ls),
(1097,546,o),
(1100,546,o),
(1103,546,cs),
(1116,546,o),
(1121,540,o),
(1121,530,cs),
(1121,525,o),
(1120,520,o),
(1118,513,cs),
(1056,340,l),
(723,335,o),
(204,162,o),
(204,-157,cs),
(204,-391,o),
(479,-455,o),
(761,-455,cs)
);
}
);
width = 1305;
},
{
anchors = (
{
name = "Anchor-10";
pos = (696.723,1429.26);
},
{
name = "Anchor-7";
pos = (644.792,-826.821);
}
);
layerId = "D346AEB9-DD6D-429C-AFEE-90B4948468D3";
shapes = (
{
closed = 1;
nodes = (
(336,-639,o),
(94,-470,o),
(94,-129,cs),
(94,93,o),
(202,273,o),
(418,411,c),
(343,499,o),
(306,581,o),
(306,658,cs),
(306,849,o),
(484,1073,o),
(697,1073,cs),
(854,1073,o),
(962,988,o),
(1039,829,c),
(987,765,l),
(885,806,o),
(796,826,o),
(720,826,cs),
(627,826,o),
(456,752,o),
(456,676,cs),
(456,651,o),
(629,532,o),
(664,532,cs),
(666,532,o),
(667,532,o),
(669,532,cs),
(808.843,554.315,o),
(949.034,575.494,o),
(1094,594,cs),
(1136,599,o),
(1151,579,o),
(1140,537,cs),
(1054,288,l),
(700.004,282.125,o),
(236,182.948,o),
(236,-91,cs),
(236,-294,o),
(514,-364,o),
(773,-364,cs),
(935,-364,o),
(1051,-345,o),
(1138,-329,cs),
(1195,-318,o),
(1230,-310,o),
(1199,-375,cs),
(1115,-552,o),
(943,-639,o),
(713,-639,cs)
);
}
);
width = 1305;
}
);
unicode = 1593;
}
{
glyphname = "kashida-ar";
layers = (
{
anchors = (
{
name = "Anchor-10";
pos = (149.292,1371.65);
},
{
name = "Anchor-7";
pos = (148.208,-195.825);
}
);
layerId = m001;
shapes = (
{
closed = 1;
nodes = (
(284,199,ls),
(300,199,o),
(314,167,o),
(314,102,cs),
(314,95,ls),
(314,32,o),
(300,0,o),
(284,0,cs),
(-5,0,ls),
(-48,0,o),
(-50,32,o),
(-50,94,cs),
(-50,104,ls),
(-50,167,o),
(-47,199,o),
(-5,199,cs)
);
}
);
width = 279;
}
);
unicode = 1600;
}
{
glyphname = "kaf-ar";
layers = (
{
anchors = (
{
name = "Anchor-10";
pos = (969.059,1412.01);
},
{
name = "Anchor-7";
pos = (886.157,-267.146);
}
);
layerId = m001;
shapes = (
{
closed = 1;
nodes = (
(356,-57,o),
(110,66,o),
(110,324,cs),
(110,423,o),
(145,544,o),
(214,647,c),
(273,624,l),
(237,532,o),
(218,461,o),
(218,398,cs),
(218,236,o),
(429,141,o),
(845,141,cs),
(1303,141,o),
(1621,181,o),
(1621,424,cs),
(1621,455,o),
(1619,509,o),
(1617,589,cs),
(1601,1015,o),
(1594,1281,o),
(1576,1400,c),
(1688,1517,ls),
(1700,1529,o),
(1707,1536,o),
(1713,1536,cs),
(1721,1536,o),
(1724,1526,o),
(1724,1505,cs),
(1734,585,ls),
(1741,5,o),
(1449,-57,o),
(841,-57,cs)
);
},
{
closed = 1;
nodes = (
(1195,598,o),
(1072,526,o),
(927,526,cs),
(842,526,o),
(765,538,o),
(696,561,c),
(710,702,l),
(780,677,o),
(853,665,o),
(929,665,cs),
(1035,665,o),
(1108,688,o),
(1108,743,cs),
(1108,774,o),
(1063,799,o),
(970,819,cs),
(856,843,o),
(799,910,o),
(799,1019,cs),
(799,1178,o),
(953,1232,o),
(1121,1252,cs),
(1127,1253,o),
(1132,1253,o),
(1137,1253,cs),
(1157,1253,o),
(1167,1247,o),
(1167,1233,cs),
(1167,1229,o),
(1166,1224,o),
(1164,1218,cs),
(1127,1112,l),
(961,1096,o),
(876,1063,o),
(876,1009,cs),
(876,977,o),
(928,954,o),
(1030,936,cs),
(1139,917,o),
(1195,854,o),
(1195,745,cs)
);
}
);
width = 1894;
}
);
unicode = 1603;
}
{
glyphname = "lam-ar";
layers = (
{
anchors = (
{
name = "Anchor-10";
pos = (596.527,1034.82);
},
{
name = "Anchor-7";
pos = (646.427,-790.57);
}
);
layerId = m001;
shapes = (
{
closed = 1;
nodes = (
(1238,-53,ls),
(1238.07,-59,o),
(1239,-65,o),
(1239,-71,cs),
(1239,-415,o),
(973,-599,o),
(623,-599,cs),
(281,-599,o),
(110,-460,o),
(110,-181,cs),
(110,-39,o),
(154,88,o),
(204,202,c),
(261,178,l),
(227,61,o),
(210,-26,o),
(210,-94,cs),
(210,-299,o),
(350,-401,o),
(629,-401,cs),
(873,-401,o),
(1043,-317,o),
(1139,-189,c),
(1104,764,o),
(1084,1275,o),
(1061,1389,c),
(1174,1511,ls),
(1200.92,1540.07,o),
(1218.46,1547,o),
(1219,1491,cs)
);
}
);
width = 1399;
}
);
unicode = 1604;
}
{
glyphname = "meem-ar";
layers = (
{
anchors = (
{
name = "Anchor-10";
pos = (583.659,1033.03);
},
{
name = "Anchor-7";
pos = (215.123,-858.52);
}
);
layerId = m001;
shapes = (
{
closed = 1;
nodes = (
(537,232,o),
(690,213,o),
(845,174,cs),
(853,172,o),
(857,175,o),
(854,184,cs),
(788,357,o),
(690,466,o),
(566,466,cs),
(461,466,o),
(409,336,o),
(380,232,c)
);
},
{
closed = 1;
nodes = (
(825,21,o),
(800,13,o),
(766,13,cs),
(754,13,o),
(740,14,o),
(725,16,cs),
(573,37,o),
(455,48,o),
(370,48,cs),
(306,48,o),
(261,42,o),
(235,30,c),
(242,-531,ls),
(243,-577,o),
(225,-629,o),
(188,-687,cs),
(162.891,-728.087,o),
(122.187,-807.383,o),
(120,-721,cs),
(110,-190,ls),
(105.876,28.998,o),
(174,162,o),
(304,229,c),
(353,511,o),
(446,651,o),
(585,651,cs),
(780,651,o),
(946,374,o),
(946,180,cs),
(946,140,o),
(912,92,o),
(843,36,cs)
);
}
);
width = 1056;
}
);
unicode = 1605;
}
{
glyphname = "heh-ar";
layers = (
{
anchors = (
{
name = "Anchor-10";
pos = (340.29,1041.38);
},
{
name = "Anchor-7";
pos = (381.864,-234.307);
}
);
layerId = m001;
shapes = (
{
closed = 1;
nodes = (
(196,231,o),
(270,198,o),
(398,198,cs),
(497,198,o),
(625,238,o),
(625,332,cs),
(625,440,o),
(453,517,o),
(320,574,c),
(258,496,o),
(196,405,o),
(196,315,cs)
);
},
{
closed = 1;
nodes = (
(187,2,o),
(110,106,o),
(110,313,cs),
(110,506,o),
(307,776,o),
(355,776,cs),
(425,776,o),
(706,629,o),
(706,339,cs),
(706,112,o),
(571,2,o),
(396,2,cs)
);
}
);
width = 816;
}
);
unicode = 1607;
}
{
glyphname = "waw-ar";
layers = (
{
anchors = (
{
name = "Anchor-10";
pos = (414.667,1030.67);
},
{
name = "Anchor-7";
pos = (351.096,-713.978);
}
);
layerId = m001;
shapes = (
{
closed = 1;
nodes = (
(609,635,o),
(707,371,o),
(707,144,cs),
(707,-213,o),
(434,-544,o),
(252,-544,cs),
(197,-544,o),
(145,-532,o),
(71,-510,cs),
(33,-499,o),
(11,-487,o),
(4,-474,cs),
(-1,-465,o),
(1,-458,o),
(13,-455,cs),
(333,-361,o),
(518,-212,o),
(594,-8,c),
(544,-18,o),
(496,-24,o),
(452,-24,cs),
(266,-24,o),
(157,50,o),
(157,230,cs),
(157,398,o),
(258,635,o),
(415,635,cs)
);
},
{
closed = 1;
nodes = (
(255,196,o),
(309,179,o),
(415,179,cs),
(464,179,o),
(523,185,o),
(594,195,c),
(582,311,o),
(526,443,o),
(407,443,cs),
(311,443,o),
(255,337,o),
(255,267,cs)
);
}
);
width = 807;
}
);
unicode = 1608;
}
{
glyphname = "alefMaksura-ar";
layers = (
{
anchors = (
{
name = "Anchor-10";
pos = (659.458,869.11);
},
{
name = "Anchor-7";
pos = (710.003,-784.57);
}
);
layerId = m001;
shapes = (
{
closed = 1;
nodes = (
(298,-585,o),
(110,-440,o),
(110,-151,cs),
(110,-38,o),
(141,90,o),
(204,232,c),
(261,208,l),
(227,91,o),
(210,1,o),
(210,-64,cs),
(210,-284,o),
(369,-393,o),
(687,-393,cs),
(1099,-393,o),
(1295,-226,o),
(1295,-175,cs),
(1295,-158,o),
(1272,-144,o),
(1226,-133,cs),
(888,-51,ls),
(831,-37,o),
(803,9,o),
(803,87,cs),
(803,405,o),
(1051,674,o),
(1330,674,cs),
(1379,674,o),
(1427,667,o),
(1475,651,c),
(1437,452,l),
(1391,456,ls),
(1365,458,o),
(1341,460,o),
(1317,460,cs),
(1099,460,o),
(927,323,o),
(905,143,c),
(1277,50,ls),
(1354,31,o),
(1393,-14,o),
(1393,-86,cs),
(1393,-405,o),
(1094,-585,o),
(673,-585,cs)
);
}
);
width = 1553;
}
);
unicode = 1609;
}
{
glyphname = "fathatan-ar";
layers = (
{
anchors = (
{
name = "Anchor-1";
pos = (553.285,1596.25);
},
{
name = "_Anchor-1";
pos = (583.551,1123.65);
},
{
name = "_Anchor-10";
pos = (583.551,1123.65);
},
{
name = "_Anchor-9";
pos = (583.551,1123.65);
}
);
layerId = m001;
shapes = (
{
closed = 1;
nodes = (
(332,1176.64,l),
(777,1358.55,l),
(777,1266.35,l),
(332,1083.46,l)
);
},
{
closed = 1;
nodes = (
(332,1388.64,l),
(777,1570.55,l),
(777,1478.35,l),
(332,1295.46,l)
);
}
);
width = 10;
}
);
unicode = 1611;
}
{
glyphname = "dammatan-ar";
layers = (
{
anchors = (
{
name = "Anchor-1";
pos = (637.739,1852.46);
},
{
name = "_Anchor-1";
pos = (680.906,1278.67);
},
{
name = "_Anchor-10";
pos = (680.906,1278.67);
},
{
name = "_Anchor-9";
pos = (680.906,1278.67);
}
);
layerId = m001;
shapes = (
{
closed = 1;
nodes = (
(494,1723.63,o),
(560.12,1786,o),
(652,1786,cs),
(744.38,1786,o),
(809,1724.62,o),
(809,1628,cs),
(809,1589.85,o),
(799.185,1548.45,o),
(782.398,1508.96,cs),
(779.939,1503.17,l),
(786.131,1502.08,ls),
(801.007,1499.45,o),
(814.456,1498.37,o),
(825,1498.06,c),
(825,1432.28,l),
(805.49,1433.41,o),
(783.991,1435.46,o),
(754.921,1440.91,cs),
(751.289,1441.6,l),
(749.572,1438.32,ls),
(687.03,1319.11,o),
(595.607,1255.99,o),
(471.867,1255.99,cs),
(343.481,1255.99,o),
(277.128,1344.53,o),
(273.079,1525.82,c),
(342.144,1538.06,l),
(346.341,1396.68,o),
(388.912,1324,o),
(473,1324,cs),
(549.143,1324,o),
(617.449,1369.3,o),
(676.93,1444.91,cs),
(681.256,1450.41,l),
(674.652,1452.72,ls),
(568.936,1489.72,o),
(494,1537.39,o),
(494,1629,cs)
);
},
{
closed = 1;
nodes = (
(727.765,1554.09,o),
(741,1593.32,o),
(741,1627,cs),
(741,1677.65,o),
(702.516,1716,o),
(656,1716,cs),
(603.259,1716,o),
(564,1679.9,o),
(564,1625,cs),
(564,1562.96,o),
(643.607,1535.14,o),
(707.721,1518.17,cs),
(711.895,1517.06,l),
(713.596,1521.03,ls)
);
}
);
width = 0;
}
);
unicode = 1612;
}
{
glyphname = "kasratan-ar";
layers = (
{
anchors = (
{
name = "Anchor-0";
pos = (595.022,-407.025);
},
{
name = "_Anchor-0";
pos = (545.278,32.711);
},
{
name = "_Anchor-6";
pos = (545.278,32.711);
},
{
name = "_Anchor-7";
pos = (545.278,32.711);
}
);
layerId = m001;
shapes = (
{
closed = 1;
nodes = (
(340,-345.36,l),
(786,-163.439,l),
(786,-256.64,l),
(340,-438.561,l)
);
},
{
closed = 1;
nodes = (
(340,-133.36,l),
(786,48.561,l),
(786,-44.639,l),
(340,-226.561,l)
);
}
);
width = 3;
}
);
unicode = 1613;
}
{
glyphname = "fatha-ar";
layers = (
{
anchors = (
{
name = _top;
pos = (545.66,1397.63);
},
{
name = top;
pos = (541.396,1651.77);
}
);
layerId = m001;
shapes = (
{
closed = 1;
nodes = (
(301,1449.64,l),
(747,1631.56,l),
(747,1538.36,l),
(301,1356.44,l)
);
}
);
width = 0;
},
{
anchors = (
{
name = _top;
pos = (545.66,1397.63);
},
{
name = top;
pos = (541.396,1651.77);
}
);
layerId = "D346AEB9-DD6D-429C-AFEE-90B4948468D3";
shapes = (
{
closed = 1;
nodes = (
(291,1456.36,l),
(757,1646.44,l),
(757,1531.64,l),
(291,1341.56,l)
);
}
);
width = 0;
}
);
unicode = 1614;
}
{
glyphname = "damma-ar";
layers = (
{
anchors = (
{
name = "Anchor-1";
pos = (542.134,1865.4);
},
{
name = "_Anchor-1";
pos = (591.295,1359.37);
},
{
name = "_Anchor-10";
pos = (591.295,1359.37);
},
{
name = "_Anchor-9";
pos = (591.295,1359.37);
}
);
layerId = m001;
shapes = (
{
closed = 1;
nodes = (
(691.762,1432.26,o),
(668.05,1434.21,o),
(643.76,1437.94,cs),
(640.72,1438.41,l),
(638.931,1435.91,ls),
(576.473,1348.46,o),
(422.097,1323.48,o),
(261,1314.29,c),
(261,1382.43,l),
(390.27,1394.14,o),
(520.773,1399.59,o),
(569.643,1451.58,cs),
(575.94,1458.27,l),
(566.894,1459.92,ls),
(476.242,1476.4,o),
(385,1536.29,o),
(385,1626,cs),
(385,1721.05,o),
(451.315,1783,o),
(543,1783,cs),
(634.926,1783,o),
(701,1720.62,o),
(701,1625,cs),
(701,1586.78,o),
(692.193,1548.46,o),
(675.381,1507.92,cs),
(672.94,1502.03,l),
(679.24,1501.06,ls),
(690.672,1499.3,o),
(705.65,1497.43,o),
(718,1497.07,c),
(718,1432.02,l)
);
},
{
closed = 1;
nodes = (
(618.765,1551.09,o),
(632,1590.32,o),
(632,1624,cs),
(632,1675.15,o),
(594.195,1712,o),
(547,1712,cs),
(493.954,1712,o),
(455,1677.25,o),
(455,1622,cs),
(455,1559.96,o),
(534.607,1532.14,o),
(598.721,1515.17,cs),
(602.895,1514.06,l),
(604.596,1518.03,ls)
);
}
);
width = 10;
}
);
unicode = 1615;
}
{
glyphname = "kasra-ar";
layers = (
{
anchors = (
{
name = "Anchor-0";
pos = (619.091,-324.624);
},
{
name = "_Anchor-0";
pos = (571.144,-44.824);
},
{
name = "_Anchor-6";
pos = (571.144,-44.824);
},
{
name = "_Anchor-7";
pos = (571.144,-44.824);
}
);
layerId = m001;
shapes = (
{
closed = 1;
nodes = (
(348,-245.358,l),
(793,-63.446,l),
(793,-155.649,l),
(348,-338.539,l)
);
}
);
width = 10;
}
);
unicode = 1616;
}
{
glyphname = "shadda-ar";
layers = (
{
anchors = (
{
name = "Anchor-1";
pos = (574,1868);
},
{
name = "_Anchor-1";
pos = (595,1445);
},
{
name = "_Anchor-10";
pos = (595,1445);
},
{
name = "_Anchor-9";
pos = (595,1445);
}
);
layerId = m001;
shapes = (
{
closed = 1;
nodes = (
(783.047,1732.42,o),
(780.738,1768.13,o),
(776.216,1796.38,c),
(792.738,1828.13,o),
(812.069,1828.45,o),
(834.209,1797.36,c),
(841.403,1745.12,o),
(844.907,1704.95,o),
(844.721,1676.85,cs),
(844.907,1548.28,o),
(799.566,1483.96,o),
(708.7,1483.9,cs),
(649.566,1483.96,o),
(609.896,1505.14,o),
(589.688,1547.41,c),
(568.562,1457.14,o),
(516.352,1412.11,o),
(433.054,1412.32,cs),
(348.352,1412.11,o),
(305.735,1467,o),
(305.206,1577,cs),
(305.068,1611.67,o),
(309.282,1655.18,o),
(317.848,1707.54,c),
(339.949,1741.85,o),
(359.219,1741.54,o),
(375.657,1706.63,c),
(369.219,1658.88,o),
(365.865,1627.64,o),
(365.596,1612.92,cs),
(365.865,1547.64,o),
(391.205,1515.05,o),
(441.614,1515.17,cs),
(505.205,1515.05,o),
(538.682,1558.61,o),
(542.046,1645.84,cs),
(543.349,1674.61,o),
(543.771,1713.63,o),
(543.312,1762.89,c),
(565.771,1792.96,o),
(584.847,1792.9,o),
(600.54,1762.7,c),
(601.514,1725.57,o),
(602.157,1705.82,o),
(602.473,1703.46,cs),
(602.157,1629.82,o),
(635.518,1592.81,o),
(702.553,1592.43,cs),
(756.185,1592.14,o),
(783.047,1624.42,o),
(783.142,1689.26,cs)
);
}
);
width = 4;
}
);
unicode = 1617;
}
{
glyphname = "sukun-ar";
layers = (
{
anchors = (
{
name = "Anchor-1";
pos = (589.537,1682.66);
},
{
name = "_Anchor-1";
pos = (609.219,1271.43);
},
{
name = "_Anchor-10";
pos = (609.219,1271.43);
},
{
name = "_Anchor-9";
pos = (609.219,1271.43);
}
);
layerId = m001;
shapes = (
{
closed = 1;
nodes = (
(426,1555.25,o),
(500.752,1630,o),
(594,1630,cs),
(687.276,1630,o),
(763,1555.21,o),
(763,1462,cs),
(763,1368.76,o),
(687.237,1293,o),
(594,1293,cs),
(500.79,1293,o),
(426,1368.72,o),
(426,1462,cs)
);
},
{
closed = 1;
nodes = (
(651.829,1362,o),
(696,1407.29,o),
(696,1462,cs),
(696,1516.81,o),
(651.685,1560,o),
(597,1560,cs),
(542.859,1560,o),
(497.982,1515.77,o),
(497.982,1461.78,cs),
(497.982,1405.45,o),
(540.651,1362,o),
(597,1362,cs)
);
}
);
width = 7;
}
);
unicode = 1618;
}
{
glyphname = "madda-ar";
layers = (
{
anchors = (
{
name = "Anchor-1";
pos = (455,2024);
},
{
name = "_Anchor-1";
pos = (485,1566);
},
{
name = "_Anchor-10";
pos = (485,1566);
},
{
name = "_Anchor-9";
pos = (485,1566);
}
);
layerId = m001;
shapes = (
{
closed = 1;
nodes = (
(381.908,1821,o),
(520.635,1796,o),
(583,1796,cs),
(666,1796,o),
(725.058,1814.76,o),
(758,1823,cs),
(826,1840,o),
(836,1827,o),
(801,1779,cs),
(744.769,1701.88,o),
(689,1668,o),
(526,1668,cs),
(479,1668,o),
(425.789,1680,o),
(362,1680,cs),
(283,1680,o),
(237,1635,o),
(177,1582,c),
(158,1596,o),
(145,1608,o),
(134,1621,c),
(188,1761,o),
(249,1821,o),
(315,1821,cs)
);
}
);
width = 0;
}
);
unicode = 1619;
}
{
glyphname = "dammainverted-ar";
layers = (
{
anchors = (
{
name = "Anchor-1";
pos = (537.285,2069.85);
},
{
name = "_Anchor-1";
pos = (513.285,1400.55);
},
{
name = "_Anchor-10";
pos = (513.285,1400.55);
},
{
name = "_Anchor-9";
pos = (513.285,1400.55);
}
);
layerId = m001;
shapes = (
{
closed = 1;
nodes = (
(309.23,1798.71,o),
(349.471,1795.82,o),
(394.471,1791.03,cs),
(396.846,1790.78,l),
(398.536,1792.46,l),
(399.536,1793.46,l),
(399.84,1793.77,l),
(400.088,1794.12,ls),
(498.408,1933.73,o),
(624.945,2011.36,o),
(780,2027.48,c),
(780,1959.24,l),
(656.457,1937.98,o),
(557.907,1878.88,o),
(482.049,1781.06,cs),
(477.55,1775.26,l),
(484.596,1773.2,ls),
(571.079,1747.89,o),
(653,1693.87,o),
(653,1599,cs),
(653,1510.23,o),
(590.228,1443,o),
(501,1443,cs),
(411.041,1443,o),
(337,1505.5,o),
(337,1603,cs),
(337,1631.22,o),
(343.869,1670.81,o),
(359.762,1720.48,cs),
(361.695,1726.52,l),
(355.369,1726.99,ls),
(329.858,1728.88,o),
(301.163,1730.78,o),
(270,1730.99,c),
(270,1799.86,l)
);
},
{
closed = 1;
nodes = (
(551.946,1511,o),
(582,1546.72,o),
(582,1597,cs),
(582,1662.8,o),
(504.016,1698.18,o),
(438.158,1713.86,cs),
(434.027,1714.85,l),
(432.388,1710.93,ls),
(414.263,1667.63,o),
(405,1633.1,o),
(405,1605,cs),
(405,1549.93,o),
(448.777,1511,o),
(501,1511,cs)
);
}
);
width = 4;
},
{
anchors = (
{
name = "Anchor-1";
pos = (537.285,2069.85);
},
{
name = "_Anchor-1";
pos = (513.285,1400.55);
},
{
name = "_Anchor-10";
pos = (513.285,1400.55);
},
{
name = "_Anchor-9";
pos = (513.285,1400.55);
}
);
layerId = "D346AEB9-DD6D-429C-AFEE-90B4948468D3";
shapes = (
{
closed = 1;
nodes = (
(305,1804,o),
(348,1801,o),
(395,1796,c),
(396,1797,ls),
(496,1939,o),
(625,2018,o),
(785,2033,c),
(785,1955,l),
(662,1935,o),
(562,1876,o),
(486,1778,c),
(573.073,1752.52,o),
(658,1697.36,o),
(658,1599,cs),
(658,1507.71,o),
(593.06,1438,o),
(501,1438,cs),
(408.643,1438,o),
(332,1502.56,o),
(332,1603,cs),
(332,1632,o),
(339,1672,o),
(355,1722,c),
(328,1724,o),
(299,1726,o),
(265,1726,c),
(265,1805,l)
);
},
{
closed = 1;
nodes = (
(549.036,1516,o),
(577,1548.9,o),
(577,1597,cs),
(577,1658.29,o),
(503.06,1693.27,o),
(437,1709,c),
(419,1666,o),
(410,1632,o),
(410,1605,cs),
(410,1552.84,o),
(451.286,1516,o),
(501,1516,cs)
);
}
);
width = 4;
}
);
unicode = 1623;
}
{
glyphname = "vabove-ar";
layers = (
{
anchors = (
{
name = "Anchor-1";
pos = (571.012,1862.38);
},
{
name = "_Anchor-1";
pos = (573.285,1350.55);
},
{
name = "_Anchor-10";
pos = (573.285,1350.55);
},
{
name = "_Anchor-9";
pos = (573.285,1350.55);
}
);
layerId = m001;
shapes = (
{
closed = 1;
nodes = (
(318.271,1763,l),
(430.128,1763,l),
(568.681,1525.48,l),
(572.985,1518.1,l),
(577.311,1525.47,l),
(716.862,1763,l),
(828.705,1763,l),
(621.31,1449,l),
(524.697,1449,l)
);
}
);
width = 1135;
},
{
anchors = (
{
name = "Anchor-1";
pos = (571.012,1862.38);
},
{
name = "_Anchor-1";
pos = (573.285,1350.55);
},
{
name = "_Anchor-10";
pos = (573.285,1350.55);
},
{
name = "_Anchor-9";
pos = (573.285,1350.55);
}
);
layerId = "D346AEB9-DD6D-429C-AFEE-90B4948468D3";
shapes = (
{
closed = 1;
nodes = (
(309,1768,l),
(433,1768,l),
(573,1528,l),
(714,1768,l),
(838,1768,l),
(624,1444,l),
(522,1444,l)
);
}
);
width = 1135;
}
);
unicode = 1626;
}
{
glyphname = "zero-ar";
layers = (
{
layerId = m001;
shapes = (
{
closed = 1;
nodes = (
(674.429,548.172,l),
(444.78,318.523,l),
(220.528,542.777,l),
(450.177,772.425,l)
);
}
);
width = 895;
}
);
unicode = 1632;
}
{
glyphname = "one-ar";
layers = (
{
layerId = m001;
shapes = (
{
closed = 1;
nodes = (
(445,1009,o),
(524,627,o),
(524,256,cs),
(524,101,o),
(498,16,o),
(446,3,c),
(445,371,o),
(343,795,o),
(142,1284,c),
(248,1427,ls),
(264.446,1449.19,o),
(277,1446,o),
(288,1418,cs)
);
}
);
width = 742;
},
{
layerId = "D346AEB9-DD6D-429C-AFEE-90B4948468D3";
shapes = (
{
closed = 1;
nodes = (
(473,1111,o),
(546,742,o),
(546,330,cs),
(546,133,o),
(501,19,o),
(406,-6,c),
(405,380,o),
(322,792,o),
(122,1278,c),
(260,1460,ls),
(291,1499,o),
(309,1480,o),
(327,1439,cs)
);
}
);
width = 742;
}
);
unicode = 1633;
}
{
glyphname = "two-ar";
layers = (
{
layerId = m001;
shapes = (
{
closed = 1;
nodes = (
(498,676,o),
(524,455,o),
(524,252,cs),
(524,100,o),
(499,14,o),
(445,3,c),
(445,372,o),
(344,800,o),
(142,1284,c),
(248,1427,ls),
(273.537,1461.45,o),
(286,1425,o),
(298,1392,cs),
(314.881,1345.58,o),
(359,1235,o),
(365,1222,cs),
(396,1145,o),
(479,1108,o),
(613,1108,cs),
(771,1108,o),
(859,1198,o),
(878,1379,cs),
(883,1429,l),
(970,1416,l),
(968,1359,ls),
(956,1056,o),
(831,905,o),
(578,905,cs),
(526.261,905,o),
(490,908,o),
(446,913,c)
);
}
);
width = 1088;
}
);
unicode = 1634;
}
{
glyphname = "three-ar";
layers = (
{
layerId = m001;
shapes = (
{
closed = 1;
nodes = (
(498,676,o),
(524,455,o),
(524,252,cs),
(524,100,o),
(499,14,o),
(445,3,c),
(445,372.613,o),
(344.649,798.445,o),
(142,1284,c),
(248,1427,ls),
(263.489,1447.9,o),
(278.126,1446.62,o),
(288,1417,cs),
(312,1348,o),
(330.085,1303.03,o),
(346,1261,cs),
(385,1158,o),
(454,1108,o),
(553,1108,cs),
(655,1108,o),
(708,1165,o),
(714,1280,cs),
(719,1388,l),
(818,1385,l),
(822,1280,ls),
(828,1164,o),
(866,1105,o),
(935,1105,cs),
(1036,1105,o),
(1087,1191,o),
(1087,1361,cs),
(1087,1413,l),
(1184,1407,l),
(1184,1332,ls),
(1184,1055.27,o),
(1101.97,917,o),
(939,917,cs),
(856,917,o),
(792,956,o),
(745,1032,c),
(691,949,o),
(612,908,o),
(510,908,cs),
(490,908,o),
(468,910,o),
(446,913,c)
);
}
);
width = 1275;
}
);
unicode = 1635;
}
{
glyphname = "four-ar";
layers = (
{
layerId = m001;
shapes = (
{
closed = 1;
nodes = (
(156,358,o),
(263,489,o),
(463,630,c),
(268,780,ls),
(169,857,o),
(143,896,o),
(143,952,cs),
(143,1018,o),
(176,1081,o),
(243,1141,cs),
(309,1200,o),
(439,1270,o),
(633,1351,cs),
(651,1359,o),
(666,1362,o),
(677,1362,cs),
(693,1362,o),
(702,1354,o),
(702,1337,cs),
(702,1332,o),
(701,1326,o),
(700,1320,cs),
(682,1236,ls),
(673,1194,o),
(664,1152,o),
(655,1108,c),
(572,1103,o),
(468,1080,o),
(343,1038,cs),
(318,1030,o),
(306,1020,o),
(306,1006,cs),
(306,990,o),
(322,969,o),
(354,944,cs),
(539,797,ls),
(597,750,o),
(626,709,o),
(626,668,cs),
(626,623,o),
(592,578,o),
(527,528,cs),
(463,479,o),
(393,415,o),
(317,337,cs),
(299,319,o),
(291,303,o),
(291,290,cs),
(291,273,o),
(306,262,o),
(336,255,cs),
(389,243,o),
(450,237,o),
(520,237,cs),
(610,237,o),
(715,247,o),
(834,267,c),
(830,78,ls),
(830,49,o),
(817,34,o),
(793,32,cs),
(733,26,o),
(676,23,o),
(622,23,cs),
(317,23,o),
(156,94,o),
(156,227,cs)
);
}
);
width = 978;
}
);
unicode = 1636;
}
{
glyphname = "five-ar";
layers = (
{
layerId = m001;
shapes = (
{
closed = 1;
nodes = (
(721,229,o),
(830,310,o),
(830,471,cs),
(830,628,o),
(720,801,o),
(506,997,c),
(313,776,o),
(217,595,o),
(217,454,cs),
(217,304,o),
(314,229,o),
(508,229,cs)
);
},
{
closed = 1;
nodes = (
(246,11,o),
(115,155,o),
(115,442,cs),
(115,631,o),
(210,845,o),
(398,1085,c),
(315,1147,l),
(446,1371,l),
(779,1059,o),
(946,759,o),
(946,470,cs),
(946,164,o),
(799,11,o),
(507,11,cs)
);
}
);
width = 1062;
}
);
unicode = 1637;
}
{
glyphname = "six-ar";
layers = (
{
layerId = m001;
shapes = (
{
closed = 1;
nodes = (
(954,718,o),
(1027,331,o),
(1159,191,c),
(1048,5,l),
(981,73,o),
(927,183,o),
(888,336,cs),
(849,491,o),
(836,763,o),
(830,1153,c),
(729,1111,o),
(616,1090,o),
(495,1090,cs),
(390,1090,o),
(278,1105,o),
(162,1137,cs),
(133,1145,o),
(118,1227,o),
(116,1380,cs),
(116,1403,o),
(124,1410,o),
(142,1404,cs),
(273,1355,o),
(429,1330,o),
(611,1330,cs),
(713,1330,o),
(823,1337,o),
(941,1353,c)
);
}
);
width = 1380;
}
);
unicode = 1638;
}
{
glyphname = "seven-ar";
layers = (
{
layerId = m001;
shapes = (
{
closed = 1;
nodes = (
(218,1442,l),
(221,1445,o),
(223,1446,o),
(226,1446,cs),
(231,1446,o),
(236,1441,o),
(241,1432,cs),
(377,1194,o),
(493,853,o),
(591,410,c),
(683,812,o),
(808,1155,o),
(964,1438,cs),
(969,1448,o),
(973,1452,o),
(977,1452,cs),
(980,1452,o),
(982,1450,o),
(984,1444,cs),
(1066,1240,l),
(838,838,o),
(693,427,o),
(629,6,c),
(554,6,l),
(492,433,o),
(356,843,o),
(126,1238,c)
);
}
);
width = 1181;
}
);
unicode = 1639;
}
{
glyphname = "eight-ar";
layers = (
{
layerId = m001;
shapes = (
{
closed = 1;
nodes = (
(356,606,o),
(492,1017,o),
(554,1444,c),
(629,1444,l),
(693,1023,o),
(838,612,o),
(1066,210,c),
(984,6,ls),
(982,0,o),
(980,-3,o),
(977,-3,cs),
(973,-3,o),
(969,2,o),
(964,12,cs),
(808,295,o),
(683,637,o),
(591,1039,c),
(493,596,o),
(377,255,o),
(241,17,cs),
(236,8,o),
(231,3,o),
(226,3,cs),
(223,3,o),
(221,4,o),
(218,7,c),
(126,211,l)
);
}
);
width = 1181;
}
);
unicode = 1640;
}
{
glyphname = "nine-ar";
layers = (
{
layerId = m001;
shapes = (
{
closed = 1;
nodes = (
(557,717,o),
(487,707,o),
(422,707,cs),
(235,707,o),
(142,795,o),
(142,969,cs),
(142,1195,o),
(265,1436,o),
(438,1436,cs),
(668.983,1436,o),
(733.751,1189.23,o),
(751,896,cs),
(775,504,o),
(835,265,o),
(927,178,c),
(828,3,l),
(785,40,o),
(750,93,o),
(721,164,cs),
(676,272,o),
(649,463,o),
(641,737,c)
);
},
{
closed = 1;
nodes = (
(243,919,o),
(337,900,o),
(427,900,cs),
(482,900,o),
(546,909,o),
(620,925,c),
(602.668,1104.1,o),
(562.302,1224,o),
(416,1224,cs),
(309,1224,o),
(243,1108,o),
(243,1003,cs)
);
}
);
width = 1057;
},
{
layerId = "D346AEB9-DD6D-429C-AFEE-90B4948468D3";
shapes = (
{
closed = 1;
nodes = (
(224.837,700,o),
(122.993,801.188,o),
(122.993,985.535,cs),
(122.993,1218.93,o),
(271.122,1480,o),
(445,1480,cs),
(700.321,1480,o),
(768.981,1210.3,o),
(787,922,cs),
(813,513,o),
(863,275,o),
(936,206,c),
(947,195,l),
(824,-13,l),
(806,2,ls),
(761,40,o),
(724,97,o),
(694,171,cs),
(650,278,o),
(623,453,o),
(614,725,c),
(539,708,o),
(472,700,o),
(413,700,cs)
);
},
{
closed = 1;
nodes = (
(261,1004,o),
(355,988,o),
(417,988,cs),
(466,988,o),
(523,993,o),
(589,1003,c),
(573,1124,o),
(538,1204,o),
(414,1204,cs),
(321,1204,o),
(261,1112,o),
(261,1054,cs)
);
}
);
width = 1057;
}
);
unicode = 1641;
}
{
glyphname = "percent-ar";
layers = (
{
layerId = m001;
shapes = (
{
closed = 1;
nodes = (
(658,149,o),
(608,199,o),
(608,260,cs),
(608,321,o),
(658,371,o),
(719,371,cs),
(780,371,o),
(830,321,o),
(830,260,cs),
(830,199,o),
(780,149,o),
(719,149,cs)
);
},
{
closed = 1;
nodes = (
(198,961,o),
(145,1014,o),
(145,1077,cs),
(145,1140,o),
(198,1193,o),
(261,1193,cs),
(324,1193,o),
(377,1140,o),
(377,1077,cs),
(377,1014,o),
(324,961,o),
(261,961,cs)
);
},
{
closed = 1;
nodes = (
(862,1353,l),
(245,0,l),
(108,0,l),
(735,1353,l)
);
}
);
width = 970;
}
);
unicode = 1642;
}
{
glyphname = "decimalseparator-ar";
layers = (
{
layerId = m001;
shapes = (
{
closed = 1;
nodes = (
(766,585,l),
(214.805,-411.224,l),
(85.805,-411.224,l),
(639.204,585.098,l)
);
}
);
width = 873;
}
);
unicode = 1643;
}
{
glyphname = "thousandseparator-ar";
layers = (
{
layerId = m001;
shapes = (
{
closed = 1;
nodes = (
(346.86,214.327,o),
(386.98,162.093,o),
(386.98,67.399,cs),
(386.98,-36.481,o),
(344.875,-203.237,o),
(187.368,-302.667,cs),
(153.758,-323.885,o),
(91.344,-304.122,o),
(127.754,-275.736,cs),
(196.237,-225.289,o),
(248,-114,o),
(248.893,-44.834,c),
(156,-2,o),
(137.643,21.354,o),
(137.643,81.083,cs),
(137.643,159.885,o),
(178.853,214.327,o),
(259.536,214.327,cs)
);
}
);
width = 530;
}
);
unicode = 1644;
}
{
glyphname = "behDotless-ar";
layers = (
{
anchors = (
{
name = "Anchor-10";
pos = (686.879,1289.77);
},
{
name = "Anchor-7";
pos = (542.407,-219.096);
}
);
layerId = m001;
shapes = (
{
closed = 1;
nodes = (
(1112,141,o),
(1610,152,o),
(1610,311,cs),
(1610,357,o),
(1567,466.125,o),
(1530,538.125,c),
(1613,689.125,ls),
(1623,708.125,o),
(1633,708.125,o),
(1644,689.125,cs),
(1701,587.125,o),
(1735,488,o),
(1735,361,cs),
(1735,11,o),
(1269,-57,o),
(838,-57,cs),
(354,-57,o),
(110,67,o),
(110,324,cs),
(110,423,o),
(145,544,o),
(214,647,c),
(273,624,l),
(237,532,o),
(218,461,o),
(218,398,cs),
(218,236,o),
(429,141,o),
(845,141,cs)
);
}
);
width = 1845;
},
{
anchors = (
{
name = "Anchor-10";
pos = (945.449,1132.82);
},
{
name = "Anchor-7";
pos = (872.857,-254.311);
}
);
layerId = "D346AEB9-DD6D-429C-AFEE-90B4948468D3";
shapes = (
{
closed = 1;
nodes = (
(351.867,-57,o),
(96.988,55.126,o),
(96.988,396.01,cs),
(96.988,520.933,o),
(136.178,638.755,o),
(213,755,c),
(304,718,l),
(267.676,628.199,o),
(249.996,560.041,o),
(249.996,508.694,cs),
(249.996,332.715,o),
(449.003,275,o),
(855,275,cs),
(1093,275,o),
(1594,290,o),
(1594,388,cs),
(1594,431,o),
(1523,544,o),
(1469,613,c),
(1593,832,ls),
(1619.97,880.913,o),
(1630,882,o),
(1658,838,cs),
(1735,715,o),
(1761,597,o),
(1761,450,cs),
(1761,-9,o),
(1269,-57,o),
(832,-57,cs)
);
}
);
width = 1845;
}
);
unicode = 1646;
}
{
glyphname = "qafDotless-ar";
layers = (
{
anchors = (
{
name = "Anchor-10";
pos = (581.456,1182.77);
},
{
name = "Anchor-7";
pos = (602.438,-689.222);
}
);
layerId = m001;
shapes = (
{
closed = 1;
nodes = (
(1273,-287.689,o),
(989.786,-469,o),
(653,-469,cs),
(291,-469,o),
(110,-330,o),
(110,-51,cs),
(110,62,o),
(141,190,o),
(204,332,c),
(261,308,l),
(227,191,o),
(210,104,o),
(210,36,cs),
(210,-169,o),
(358,-271,o),
(653,-271,cs),
(872,-271,o),
(1088,-192,o),
(1179,-57,c),
(1187.45,5.01,o),
(1186.91,57.58,o),
(1180,115,c),
(1110,90,o),
(1043,79,o),
(966,79,cs),
(820,79,o),
(728,150,o),
(728,306,cs),
(728,538,o),
(847,710,o),
(979,710,cs),
(1216,710,o),
(1273,395,o),
(1273,124,cs)
);
},
{
closed = 1;
nodes = (
(820,286,o),
(895,271,o),
(971,271,cs),
(1049,271,o),
(1114,285,o),
(1163,310,c),
(1143,413,o),
(1092,524,o),
(973,524,cs),
(882,524,o),
(820,423,o),
(820,337,cs)
);
}
);
width = 1383;
}
);
unicode = 1647;
}
{
glyphname = "alefabove-ar";
layers = (
{
anchors = (
{
name = _top;
pos = (768.713,1776.23);
},
{
name = top;
pos = (756.758,2355.27);
}
);
layerId = m001;
shapes = (
{
closed = 1;
nodes = (
(706.81,2198.62,l),
(793,2255.27,ls),
(808.966,2264.67,o),
(816.948,2259.58,o),
(816.948,2240,cs),
(816.948,1859.79,l),
(751.905,1838.16,l)
);
}
);
width = 0;
},
{
anchors = (
{
name = _top;
pos = (768.713,1776.23);
},
{
name = top;
pos = (756.758,2355.27);
}
);
layerId = "D346AEB9-DD6D-429C-AFEE-90B4948468D3";
shapes = (
{
closed = 1;
nodes = (
(701,2201,l),
(790,2260,ls),
(807,2273,o),
(822,2263,o),
(822,2240,cs),
(822,1856,l),
(748,1831,l)
);
}
);
width = 0;
}
);
unicode = 1648;
}
{
glyphname = "highhamza-ar";
layers = (
{
layerId = m001;
shapes = (
{
closed = 1;
nodes = (
(219,2256,o),
(307,2370,o),
(412,2370,cs),
(490,2370,o),
(546,2327,o),
(582,2243,c),
(560,2206,l),
(507,2230,o),
(462,2242,o),
(426,2242,cs),
(371.721,2242,o),
(287,2211.81,o),
(287,2154,cs),
(287,2091.72,o),
(367.783,2043,o),
(450,2043,cs),
(483,2043,o),
(504,2052,o),
(551,2070,cs),
(570,2077,o),
(585,2081,o),
(595,2081,cs),
(607,2081,o),
(613,2076,o),
(613,2066,cs),
(613,2060,o),
(611,2052,o),
(606,2042,cs),
(560,1947,l),
(447,1926,o),
(344,1877,o),
(210,1802,c),
(231,1947,l),
(258,1960,o),
(287,1974,o),
(314,1988,c),
(251,2017,o),
(219,2062,o),
(219,2123,cs)
);
}
);
width = 794;
}
);
unicode = 1652;
}
{
glyphname = "fehDotless-ar";
layers = (
{
anchors = (
{
name = "Anchor-10";
pos = (772.25,1469.37);
},
{
name = "Anchor-7";
pos = (555.276,-280.135);
}
);
layerId = m001;
shapes = (
{
closed = 1;
nodes = (
(1440,141,o),
(1538,171,o),
(1541,404,c),
(1471,379,o),
(1408,368,o),
(1331,368,cs),
(1185,368,o),
(1093,439,o),
(1093,595,cs),
(1093,827,o),
(1216,999,o),
(1348,999,cs),
(1585,999,o),
(1643,674,o),
(1643,443,cs),
(1643,4,o),
(1434,-57,o),
(838,-57,cs),
(354,-57,o),
(110,67,o),
(110,324,cs),
(110,423,o),
(145,544,o),
(214,647,c),
(273,624,l),
(237,532,o),
(218,461,o),
(218,398,cs),
(218,237,o),
(428,141,o),
(841,141,cs)
);
},
{
closed = 1;
nodes = (
(1185,575,o),
(1260,560,o),
(1336,560,cs),
(1414,560,o),
(1479,574,o),
(1528,599,c),
(1508,702,o),
(1457,813,o),
(1338,813,cs),
(1247,813,o),
(1185,712,o),
(1185,626,cs)
);
}
);
width = 1753;
}
);
unicode = 1697;
}
{
glyphname = "keheh-ar";
layers = (
{
anchors = (
{
name = "Anchor-10";
pos = (1211.31,1452.92);
},
{
name = "Anchor-7";
pos = (886.157,-267.146);
}
);
layerId = m001;
shapes = (
{
closed = 1;
nodes = (
(1236,141,o),
(1639,215,o),
(1639,387,cs),
(1639,498,o),
(1332,793,o),
(1078,975,cs),
(1058.46,989.003,o),
(1052,1008,o),
(1052,1022,c),
(1093,1154,ls),
(1096,1166,o),
(1102,1174,o),
(1110,1177,cs),
(1906,1513,ls),
(1920,1519,o),
(1927,1515,o),
(1925,1502,cs),
(1899,1352,l),
(1218,1067,l),
(1573,813,o),
(1736,563,o),
(1736,392,cs),
(1736,75,o),
(1279,-57,o),
(838,-57,cs),
(354,-57,o),
(110,67,o),
(110,324,cs),
(110,423,o),
(145,544,o),
(214,647,c),
(273,624,l),
(237,532,o),
(218,461,o),
(218,398,cs),
(218,236,o),
(429,141,o),
(845,141,cs)
);
}
);
width = 1985;
}
);
unicode = 1705;
}
{
glyphname = "gaf-ar";
layers = (
{
anchors = (
{
name = "Anchor-10";
pos = (1336.95,1586.92);
},
{
name = "Anchor-7";
pos = (886.157,-267.146);
}
);
layerId = m001;
shapes = (
{
closed = 1;
nodes = (
(1575,729,o),
(1734,546.591,o),
(1734,393,cs),
(1734,68.495,o),
(1272.33,-57,o),
(838.005,-57,cs),
(354.004,-56.999,o),
(110,66.997,o),
(110,324,cs),
(110,423,o),
(145,544,o),
(214,647,c),
(273,624,l),
(237,532,o),
(218,461,o),
(218,398,cs),
(218,236,o),
(429,141,o),
(845,141,cs),
(1231.61,141,o),
(1636,214.103,o),
(1636,377,cs),
(1636,493.225,o),
(1224,791,o),
(1077,885,cs),
(1058.45,896.864,o),
(1052,914,o),
(1052,932,cs),
(1093,1064,ls),
(1096.5,1075.85,o),
(1102,1084,o),
(1110,1087,cs),
(1906,1423,ls),
(1920,1429,o),
(1927,1425,o),
(1925,1412,cs),
(1899,1262,l),
(1218,977,l)
);
},
{
pos = (1045,-777);
ref = arabic_gaf_bar;
scale = (1.1342,1.1342);
}
);
width = 2005;
},
{
anchors = (
{
name = "Anchor-10";
pos = (1303.36,1591.03);
},
{
name = "Anchor-7";
pos = (876.157,-267.146);
}
);
layerId = "D346AEB9-DD6D-429C-AFEE-90B4948468D3";
shapes = (
{
closed = 1;
nodes = (
(1524,869.1,o),
(1751.09,650.872,o),
(1751.09,437.748,cs),
(1751.09,54.938,o),
(1289.68,-57,o),
(832,-57,cs),
(351.867,-57,o),
(96.988,55.126,o),
(96.988,396.01,cs),
(96.988,520.933,o),
(136.178,638.755,o),
(213,755,c),
(304,718,l),
(267.676,628.199,o),
(249.996,560.041,o),
(249.996,508.694,cs),
(249.996,332.715,o),
(449.003,275,o),
(855,275,cs),
(1130.53,275,o),
(1606.78,288.627,o),
(1606.78,444.978,cs),
(1606.78,537.083,o),
(1282.48,725.417,o),
(1071,870,cs),
(1052,884,o),
(1037,911,o),
(1044,940,cs),
(1102,1134,ls),
(1108,1155,o),
(1119,1168,o),
(1131,1173,cs),
(1897,1498,ls),
(1923,1509,o),
(1928,1498,o),
(1923,1469,cs),
(1886,1249,l),
(1306,1008,l)
);
},
{
pos = (1045,-777);
ref = arabic_gaf_bar;
scale = (1.1342,1.1342);
}
);
width = 2005;
}
);
unicode = 1711;
}
{
glyphname = "noonghunna-ar";
layers = (
{
layerId = m001;
shapes = (
{
closed = 1;
nodes = (
(875,-293,o),
(1090,-212,o),
(1182,-81,c),
(1178,13,o),
(1118,179,o),
(1010,378,c),
(1094,513,ls),
(1109,537,o),
(1123,537,o),
(1137,513,cs),
(1206,393,o),
(1270,220,o),
(1270,44,cs),
(1270,-302,o),
(989,-491,o),
(653,-491,cs),
(291,-491,o),
(110,-352,o),
(110,-73,cs),
(110,69,o),
(154,196,o),
(204,310,c),
(261,286,l),
(227,169,o),
(210,82,o),
(210,14,cs),
(210,-191,o),
(359,-293,o),
(658,-293,cs)
);
}
);
width = 1380;
},
{
layerId = "D346AEB9-DD6D-429C-AFEE-90B4948468D3";
shapes = (
{
closed = 1;
nodes = (
(303.31,-490.01,o),
(93,-361.565,o),
(93,-60,cs),
(93,64,o),
(129,208,o),
(200,371,c),
(290,333,l),
(253,241,o),
(235,160,o),
(235,91,cs),
(235,-104.586,o),
(410.442,-179,o),
(642,-179,cs),
(871,-179,o),
(1066,-114,o),
(1165,7,c),
(1110,160,o),
(1044,309,o),
(967,434,c),
(1085.11,640.05,ls),
(1101.1,667.943,o),
(1114.33,682,o),
(1123,682,cs),
(1129.67,682,o),
(1139,672,o),
(1151,652,cs),
(1250.93,485.233,o),
(1291.11,334.707,o),
(1291.11,141.297,cs),
(1291.11,-279.849,o),
(1027.48,-490.01,o),
(645.773,-490.01,cs)
);
}
);
width = 1380;
}
);
unicode = 1722;
}
{
glyphname = "zeroFarsi-ar";
layers = (
{
layerId = m001;
shapes = (
{
closed = 1;
nodes = (
(322,475,o),
(378,419,o),
(447,419,cs),
(516,419,o),
(572,475,o),
(572,544,cs),
(572,613,o),
(516,669,o),
(447,669,cs),
(378,669,o),
(322,613,o),
(322,544,cs)
);
},
{
closed = 1;
nodes = (
(200,680,o),
(311,791,o),
(447,791,cs),
(583,791,o),
(694,680,o),
(694,544,cs),
(694,408,o),
(583,297,o),
(447,297,cs),
(311,297,o),
(200,408,o),
(200,544,cs)
);
}
);
width = 895;
}
);
unicode = 1776;
}
{
glyphname = "fourFarsi-ar";
layers = (
{
layerId = m001;
shapes = (
{
closed = 1;
nodes = (
(702,1256,o),
(619,1178,o),
(619,1076,cs),
(619,1020,o),
(644,986,o),
(692,972,cs),
(730,961,o),
(770,956,o),
(813,956,cs),
(880,956,o),
(953,968,o),
(1033,993,c),
(1059,942,l),
(968,838,o),
(873,786,o),
(773,786,cs),
(633,786,o),
(524,837,o),
(446,933,c),
(498,696,o),
(524,468,o),
(524,252,cs),
(524,100,o),
(499,14,o),
(445,3,c),
(445,363,o),
(344,794,o),
(142,1284,c),
(248,1427,ls),
(260.867,1444.36,o),
(276.354,1449.53,o),
(286,1423,cs),
(350,1230,ls),
(375.481,1153.16,o),
(433,1094,o),
(524,1054,c),
(516,1081,o),
(512,1109,o),
(512,1137,cs),
(512,1307,o),
(626,1423,o),
(776,1423,cs),
(884,1423,o),
(957,1365,o),
(996,1250,c),
(974,1222,l),
(914,1245,o),
(862,1256,o),
(816,1256,cs)
);
}
);
width = 1187;
}
);
unicode = 1780;
}
{
glyphname = "fiveFarsi-ar";
layers = (
{
layerId = m001;
shapes = (
{
closed = 1;
nodes = (
(439,197,o),
(494,288,o),
(539,468,c),
(591,466,l),
(622,331,o),
(673,197,o),
(810,197,cs),
(893,197,o),
(934,240,o),
(934,327,cs),
(934,588,o),
(727,877,o),
(527,1083,c),
(420,922,o),
(190,511,o),
(190,326,cs),
(190,242,o),
(229,197,o),
(311,197,cs)
);
},
{
closed = 1;
nodes = (
(164,3,o),
(92,107,o),
(92,310,cs),
(92,525,o),
(266,895,o),
(441,1182,c),
(404,1215,l),
(491,1384,ls),
(502,1405,o),
(518,1406,o),
(537,1386,cs),
(853,1055,o),
(1039,685,o),
(1039,332,cs),
(1039,113,o),
(966,3,o),
(820,3,cs),
(706,3,o),
(622,70,o),
(567,203,c),
(518,70,o),
(429,3,o),
(302,3,cs)
);
}
);
width = 1133;
}
);
unicode = 1781;
}
{
glyphname = "sixFarsi-ar";
layers = (
{
layerId = m001;
shapes = (
{
closed = 1;
nodes = (
(680,1251,o),
(610,1263,o),
(560,1263,cs),
(445,1263,o),
(290,1139,o),
(290,1049,cs),
(290,980,o),
(463,922,o),
(630,922,cs),
(682,922,o),
(706,925,o),
(758,947,cs),
(818,972,o),
(878,996,o),
(910,1008,cs),
(965,1029,o),
(973,1012,o),
(954,959,cs),
(908,833,l),
(641,721,o),
(397,443,o),
(176,-2,c),
(49,119,o),
(398,641,o),
(490,728,c),
(286,779,o),
(184,887,o),
(184,1050,cs),
(184,1230,o),
(356,1455,o),
(550,1455,cs),
(671,1455,o),
(759,1395,o),
(815,1273,c),
(775,1226,l)
);
}
);
width = 1075;
}
);
unicode = 1782;
}
{
glyphname = "parenleft-ar";
layers = (
{
layerId = m001;
shapes = (
{
closed = 1;
nodes = (
(854.427,682.32,o),
(847.08,700.025,o),
(832.386,714.719,cs),
(817.692,729.413,o),
(799.987,736.76,o),
(779.271,736.76,cs),
(758.554,736.76,o),
(740.849,729.413,o),
(726.155,714.719,cs),
(711.461,700.025,o),
(704.114,682.32,o),
(704.114,661.604,cs),
(704.114,640.887,o),
(711.461,623.182,o),
(726.155,608.488,cs),
(740.849,593.794,o),
(758.554,586.447,o),
(779.271,586.447,cs),
(799.987,586.447,o),
(817.692,593.794,o),
(832.386,608.488,cs),
(847.08,623.182,o),
(854.427,640.887,o),
(854.427,661.604,cs)
);
},
{
closed = 1;
nodes = (
(968.3,609.441,o),
(949.835,564.896,o),
(912.906,527.968,cs),
(875.978,491.039,o),
(831.433,472.574,o),
(779.271,472.574,cs),
(727.108,472.574,o),
(682.562,491.039,o),
(645.633,527.968,cs),
(608.705,564.896,o),
(590.241,609.441,o),
(590.241,661.604,cs),
(590.241,713.766,o),
(608.705,758.311,o),
(645.633,795.24,cs),
(682.562,832.169,o),
(727.108,850.633,o),
(779.271,850.633,cs),
(831.433,850.633,o),
(875.978,832.169,o),
(912.906,795.24,cs),
(949.835,758.311,o),
(968.3,713.766,o),
(968.3,661.604,cs)
);
},
{
closed = 1;
nodes = (
(777.215,-56.044,o),
(879.812,-233.693,o),
(1030.03,-345.852,c),
(953.328,-210.293,o),
(896.019,-32.073,o),
(858.104,188.808,cs),
(854.78,208.175,o),
(860.065,224.806,o),
(873.96,238.702,cs),
(916.122,280.863,ls),
(927.24,291.98,o),
(940.66,297.539,o),
(956.383,297.539,cs),
(1150.99,297.539,l),
(1150.99,492.15,ls),
(1150.99,507.874,o),
(1156.55,521.294,o),
(1167.67,532.41,cs),
(1305.28,670.02,l),
(1167.67,807.629,ls),
(1156.55,818.746,o),
(1150.99,832.166,o),
(1150.99,847.889,cs),
(1150.99,1042.5,l),
(956.383,1042.5,ls),
(940.66,1042.5,o),
(927.24,1048.06,o),
(916.122,1059.17,cs),
(870.866,1104.43,ls),
(857.167,1118.13,o),
(851.846,1134.55,o),
(854.904,1153.68,cs),
(894.238,1399.76,o),
(957.025,1598.03,o),
(1043.27,1748.49,c),
(875.1,1627.75,o),
(764.52,1426.2,o),
(711.524,1143.85,cs),
(709.358,1132.32,o),
(704.125,1122.4,o),
(695.825,1114.1,cs),
(640.902,1059.17,ls),
(629.786,1048.06,o),
(616.366,1042.5,o),
(600.643,1042.5,cs),
(406.033,1042.5,l),
(406.033,847.889,ls),
(406.033,832.166,o),
(400.475,818.746,o),
(389.357,807.629,cs),
(251.748,670.02,l),
(389.357,532.41,ls),
(400.475,521.294,o),
(406.033,507.874,o),
(406.033,492.15,cs),
(406.033,297.539,l),
(600.643,297.539,ls),
(616.366,297.539,o),
(629.786,291.98,o),
(640.902,280.863,cs),
(706.968,214.8,ls),
(714.729,207.037,o),
(719.821,197.803,o),
(722.241,187.096,cs)
);
},
{
closed = 1;
nodes = (
(577.059,183.667,l),
(349.098,183.667,ls),
(335.681,183.667,o),
(322.837,189.115,o),
(310.566,200.01,cs),
(298.296,210.904,o),
(292.16,224.435,o),
(292.16,240.603,cs),
(292.16,468.566,l),
(130.967,629.758,ls),
(123.783,636.942,o),
(118.159,648.33,o),
(114.094,663.921,cs),
(110.029,679.513,o),
(115.653,694.966,o),
(130.967,710.28,cs),
(292.16,871.474,l),
(292.16,1099.44,ls),
(292.16,1112.85,o),
(297.608,1125.7,o),
(308.504,1137.97,cs),
(319.398,1150.24,o),
(332.93,1156.37,o),
(349.098,1156.37,cs),
(577.059,1156.37,l),
(602.96,1182.27,l),
(686.466,1603.2,o),
(892.472,1861.97,o),
(1220.98,1958.58,cs),
(1244.85,1967.95,o),
(1262.81,1958.61,o),
(1274.85,1930.55,cs),
(1281.05,1916.09,o),
(1281.18,1893.15,o),
(1275.24,1861.74,c),
(1129.98,1730.31,o),
(1028.92,1497.82,o),
(972.064,1164.27,c),
(979.967,1156.37,l),
(1207.93,1156.37,ls),
(1221.34,1156.37,o),
(1234.19,1150.92,o),
(1246.46,1140.03,cs),
(1258.73,1129.14,o),
(1264.86,1115.6,o),
(1264.86,1099.44,cs),
(1264.86,871.474,l),
(1426.06,710.28,ls),
(1433.24,703.095,o),
(1438.87,691.706,o),
(1442.93,676.115,cs),
(1447,660.524,o),
(1441.37,645.072,o),
(1426.06,629.758,cs),
(1264.86,468.566,l),
(1264.86,240.603,ls),
(1264.86,227.186,o),
(1259.42,214.342,o),
(1248.52,202.072,cs),
(1237.63,189.802,o),
(1224.1,183.667,o),
(1207.93,183.667,cs),
(979.967,183.667,l),
(975.461,179.16,l),
(1033.56,-138.06,o),
(1132.65,-353.046,o),
(1272.74,-465.798,cs),
(1282.82,-473.912,o),
(1287.76,-482.954,o),
(1287.56,-492.924,cs),
(1287.05,-517.739,o),
(1264.86,-541.69,o),
(1220.98,-564.776,c),
(907.437,-472.559,o),
(705.417,-235.697,o),
(614.914,145.81,c)
);
}
);
width = 1557;
}
);
unicode = 64830;
}
{
glyphname = "parenright-ar";
layers = (
{
layerId = m001;
shapes = (
{
closed = 1;
nodes = (
(702.598,640.887,o),
(709.945,623.182,o),
(724.639,608.488,cs),
(739.333,593.794,o),
(757.038,586.447,o),
(777.755,586.447,cs),
(798.472,586.447,o),
(816.177,593.794,o),
(830.87,608.488,cs),
(845.564,623.182,o),
(852.911,640.887,o),
(852.911,661.604,cs),
(852.911,682.32,o),
(845.564,700.025,o),
(830.87,714.719,cs),
(816.177,729.413,o),
(798.472,736.76,o),
(777.755,736.76,cs),
(757.038,736.76,o),
(739.333,729.413,o),
(724.639,714.719,cs),
(709.945,700.025,o),
(702.598,682.32,o),
(702.598,661.604,cs)
);
},
{
closed = 1;
nodes = (
(588.725,713.766,o),
(607.189,758.311,o),
(644.117,795.24,cs),
(681.047,832.169,o),
(725.593,850.633,o),
(777.755,850.633,cs),
(829.917,850.633,o),
(874.462,832.169,o),
(911.391,795.24,cs),
(948.32,758.311,o),
(966.784,713.766,o),
(966.784,661.604,cs),
(966.784,609.441,o),
(948.32,564.896,o),
(911.391,527.968,cs),
(874.462,491.039,o),
(829.917,472.574,o),
(777.755,472.574,cs),
(725.593,472.574,o),
(681.047,491.039,o),
(644.117,527.968,cs),
(607.189,564.896,o),
(588.725,609.441,o),
(588.725,661.604,cs)
);
},
{
closed = 1;
nodes = (
(837.204,197.803,o),
(842.295,207.037,o),
(850.057,214.8,cs),
(916.122,280.863,ls),
(927.24,291.98,o),
(940.66,297.539,o),
(956.383,297.539,cs),
(1150.99,297.539,l),
(1150.99,492.15,ls),
(1150.99,507.874,o),
(1156.55,521.294,o),
(1167.67,532.41,cs),
(1305.28,670.02,l),
(1167.67,807.629,ls),
(1156.55,818.746,o),
(1150.99,832.166,o),
(1150.99,847.889,cs),
(1150.99,1042.5,l),
(956.383,1042.5,ls),
(940.66,1042.5,o),
(927.24,1048.06,o),
(916.122,1059.17,cs),
(861.201,1114.1,ls),
(852.9,1122.4,o),
(847.667,1132.32,o),
(845.502,1143.85,cs),
(792.506,1426.2,o),
(681.925,1627.75,o),
(513.76,1748.49,c),
(599.999,1598.03,o),
(662.786,1399.76,o),
(702.12,1153.68,cs),
(705.178,1134.55,o),
(699.857,1118.13,o),
(686.157,1104.43,cs),
(640.902,1059.17,ls),
(629.786,1048.06,o),
(616.366,1042.5,o),
(600.643,1042.5,cs),
(406.033,1042.5,l),
(406.033,847.889,ls),
(406.033,832.166,o),
(400.475,818.746,o),
(389.357,807.629,cs),
(251.748,670.02,l),
(389.357,532.41,ls),
(400.475,521.294,o),
(406.033,507.874,o),
(406.033,492.15,cs),
(406.033,297.539,l),
(600.643,297.539,ls),
(616.366,297.539,o),
(629.786,291.98,o),
(640.902,280.863,cs),
(683.065,238.702,ls),
(696.96,224.806,o),
(702.245,208.175,o),
(698.921,188.808,cs),
(661.006,-32.073,o),
(603.697,-210.293,o),
(526.994,-345.852,c),
(677.212,-233.693,o),
(779.809,-56.044,o),
(834.783,187.096,cs)
);
},
{
closed = 1;
nodes = (
(851.608,-235.697,o),
(649.588,-472.559,o),
(336.05,-564.776,c),
(292.17,-541.69,o),
(269.977,-517.739,o),
(269.469,-492.924,cs),
(269.264,-482.954,o),
(274.203,-473.912,o),
(284.284,-465.798,cs),
(424.371,-353.046,o),
(523.465,-138.06,o),
(581.564,179.16,c),
(577.059,183.667,l),
(349.098,183.667,ls),
(332.93,183.667,o),
(319.398,189.802,o),
(308.504,202.072,cs),
(297.608,214.342,o),
(292.16,227.186,o),
(292.16,240.603,cs),
(292.16,468.566,l),
(130.967,629.758,ls),
(115.653,645.072,o),
(110.029,660.524,o),
(114.094,676.115,cs),
(118.159,691.706,o),
(123.783,703.095,o),
(130.967,710.28,cs),
(292.16,871.474,l),
(292.16,1099.44,ls),
(292.16,1115.6,o),
(298.296,1129.14,o),
(310.566,1140.03,cs),
(322.837,1150.92,o),
(335.681,1156.37,o),
(349.098,1156.37,cs),
(577.059,1156.37,l),
(584.961,1164.27,l),
(528.106,1497.82,o),
(427.047,1730.31,o),
(281.784,1861.74,c),
(275.842,1893.15,o),
(275.974,1916.09,o),
(282.179,1930.55,cs),
(294.22,1958.61,o),
(312.177,1967.95,o),
(336.05,1958.58,cs),
(664.554,1861.97,o),
(870.559,1603.2,o),
(954.064,1182.27,c),
(979.967,1156.37,l),
(1207.93,1156.37,ls),
(1224.1,1156.37,o),
(1237.63,1150.24,o),
(1248.52,1137.97,cs),
(1259.42,1125.7,o),
(1264.86,1112.85,o),
(1264.86,1099.44,cs),
(1264.86,871.474,l),
(1426.06,710.28,ls),
(1441.37,694.966,o),
(1447,679.513,o),
(1442.93,663.921,cs),
(1438.87,648.33,o),
(1433.24,636.942,o),
(1426.06,629.758,cs),
(1264.86,468.566,l),
(1264.86,240.603,ls),
(1264.86,224.435,o),
(1258.73,210.904,o),
(1246.46,200.01,cs),
(1234.19,189.115,o),
(1221.34,183.667,o),
(1207.93,183.667,cs),
(979.967,183.667,l),
(942.109,145.81,l)
);
}
);
width = 1557;
},
{
layerId = "D346AEB9-DD6D-429C-AFEE-90B4948468D3";
shapes = (
{
closed = 1;
nodes = (
(722.153,673.114,o),
(723.48,665.91,o),
(726.135,659.513,cs),
(728.79,653.116,o),
(732.964,647.071,o),
(738.656,641.378,cs),
(744.35,635.685,o),
(750.395,631.511,o),
(756.793,628.856,cs),
(763.191,626.202,o),
(770.395,624.875,o),
(778.405,624.875,cs),
(793.901,624.875,o),
(807.15,630.376,o),
(818.152,641.378,cs),
(829.155,652.38,o),
(834.656,665.629,o),
(834.656,681.125,cs),
(834.656,696.62,o),
(829.155,709.869,o),
(818.151,720.872,cs),
(807.149,731.875,o),
(793.901,737.376,o),
(778.405,737.376,cs),
(775.188,737.376,o),
(772.122,737.167,o),
(769.209,736.75,cs),
(766.296,736.334,o),
(763.487,735.701,o),
(760.782,734.85,cs),
(758.076,733.999,o),
(755.466,732.915,o),
(752.951,731.6,cs),
(750.436,730.285,o),
(747.997,728.74,o),
(745.634,726.965,cs),
(743.27,725.191,o),
(740.944,723.16,o),
(738.656,720.872,cs),
(727.654,709.869,o),
(722.153,696.62,o),
(722.153,681.125,cs)
);
},
{
closed = 1;
nodes = (
(570.248,692.495,o),
(571.073,703.591,o),
(572.722,714.412,cs),
(574.371,725.234,o),
(576.838,735.736,o),
(580.12,745.918,cs),
(583.402,756.099,o),
(587.485,765.95,o),
(592.369,775.471,cs),
(597.254,784.991,o),
(602.942,794.162,o),
(609.435,802.983,cs),
(615.926,811.805,o),
(623.196,820.24,o),
(631.244,828.287,cs),
(651.385,848.427,o),
(673.833,863.628,o),
(698.589,873.89,cs),
(723.345,884.15,o),
(749.95,889.28,o),
(778.405,889.28,cs),
(792.617,889.28,o),
(806.396,887.991,o),
(819.743,885.411,cs),
(833.091,882.832,o),
(845.918,878.992,o),
(858.225,873.891,cs),
(870.531,868.79,o),
(882.316,862.428,o),
(893.58,854.807,cs),
(904.844,847.184,o),
(915.506,838.344,o),
(925.564,828.286,cs),
(945.706,808.145,o),
(960.907,785.697,o),
(971.168,760.941,cs),
(981.43,736.186,o),
(986.561,709.581,o),
(986.561,681.125,cs),
(986.561,662.174,o),
(984.276,644.017,o),
(979.708,626.654,cs),
(975.14,609.29,o),
(968.328,592.854,o),
(959.271,577.347,cs),
(950.213,561.838,o),
(938.978,547.378,o),
(925.565,533.965,cs),
(884.903,493.301,o),
(835.849,472.969,o),
(778.405,472.969,cs),
(759.454,472.969,o),
(741.297,475.253,o),
(723.934,479.82,cs),
(706.57,484.389,o),
(690.135,491.202,o),
(674.627,500.259,cs),
(659.118,509.316,o),
(644.657,520.551,o),
(631.244,533.964,cs),
(590.58,574.627,o),
(570.248,623.681,o),
(570.248,681.125,cs)
);
},
{
closed = 1;
nodes = (
(818.57,217.436,o),
(821.088,224.079,o),
(824.536,230.332,cs),
(827.983,236.585,o),
(832.257,242.261,o),
(837.355,247.36,cs),
(903.475,313.479,ls),
(918.306,328.31,o),
(936.208,335.725,o),
(957.182,335.725,cs),
(1132.98,335.725,l),
(1132.98,511.53,ls),
(1132.98,532.505,o),
(1140.4,550.407,o),
(1155.23,565.236,cs),
(1279.54,689.548,l),
(1155.23,813.858,ls),
(1140.4,828.689,o),
(1132.98,846.591,o),
(1132.98,867.565,cs),
(1132.98,1043.37,l),
(957.182,1043.37,ls),
(936.208,1043.37,o),
(918.306,1050.79,o),
(903.474,1065.62,cs),
(848.508,1120.58,ls),
(837.436,1131.66,o),
(830.455,1144.89,o),
(827.565,1160.28,cs),
(812.786,1239.02,o),
(793.431,1311.41,o),
(769.501,1377.46,cs),
(745.571,1443.51,o),
(717.352,1502.83,o),
(684.844,1555.4,cs),
(652.337,1607.98,o),
(615.473,1654.21,o),
(574.252,1694.09,c),
(607.19,1623.52,o),
(635.852,1545.3,o),
(660.236,1459.44,cs),
(684.621,1373.59,o),
(705.021,1279.31,o),
(721.438,1176.6,cs),
(725.517,1151.08,o),
(718.419,1129.18,o),
(700.145,1110.91,cs),
(654.852,1065.62,ls),
(640.021,1050.79,o),
(622.119,1043.37,o),
(601.145,1043.37,cs),
(425.341,1043.37,l),
(425.341,867.565,ls),
(425.341,846.591,o),
(417.925,828.689,o),
(403.095,813.859,cs),
(278.783,689.548,l),
(403.095,565.237,ls),
(417.925,550.407,o),
(425.341,532.505,o),
(425.341,511.53,cs),
(425.341,335.725,l),
(601.145,335.725,ls),
(611.363,335.725,o),
(621.062,333.823,o),
(630.242,330.021,cs),
(639.423,326.218,o),
(647.626,320.705,o),
(654.851,313.479,cs),
(697.05,271.282,ls),
(715.584,252.746,o),
(722.633,230.561,o),
(718.199,204.726,cs),
(687.512,25.947,o),
(644.132,-125.404,o),
(588.058,-249.326,c),
(696.096,-139.992,o),
(772.404,13.252,o),
(816.98,210.404,cs)
);
},
{
closed = 1;
nodes = (
(867.073,-230.662,o),
(660.934,-470.58,o),
(341.684,-564.478,cs),
(334.305,-566.648,l),
(327.499,-563.066,ls),
(276.98,-536.487,o),
(251.39,-507.05,o),
(250.729,-474.757,cs),
(250.561,-466.533,o),
(252.45,-458.808,o),
(256.397,-451.581,cs),
(260.345,-444.354,o),
(265.756,-437.974,o),
(272.629,-432.441,cs),
(406.434,-324.745,o),
(502.243,-119.324,o),
(560.055,183.82,c),
(349.39,183.82,ls),
(338.759,183.82,o),
(328.743,185.951,o),
(319.341,190.214,cs),
(309.938,194.476,o),
(301.684,200.61,o),
(294.577,208.615,cs),
(287.819,216.227,o),
(282.605,224.357,o),
(278.938,233.004,cs),
(275.27,241.652,o),
(273.437,250.575,o),
(273.437,259.772,cs),
(273.437,480.069,l),
(117.664,635.84,ls),
(108.184,645.319,o),
(101.43,655.592,o),
(97.4,666.658,cs),
(93.371,677.725,o),
(92.849,688.983,o),
(95.834,700.435,cs),
(100.769,719.361,o),
(108.046,733.634,o),
(117.664,743.254,cs),
(273.437,899.027,l),
(273.437,1119.32,ls),
(273.437,1124.62,o),
(273.98,1129.81,o),
(275.066,1134.88,cs),
(276.153,1139.94,o),
(277.744,1144.78,o),
(279.84,1149.4,cs),
(281.936,1154.02,o),
(284.529,1158.41,o),
(287.619,1162.58,cs),
(290.71,1166.75,o),
(294.248,1170.6,o),
(298.231,1174.13,cs),
(303.252,1178.59,o),
(308.469,1182.37,o),
(313.883,1185.48,cs),
(319.296,1188.58,o),
(325.025,1190.99,o),
(331.068,1192.71,cs),
(337.111,1194.42,o),
(343.218,1195.28,o),
(349.39,1195.28,cs),
(564.284,1195.28,l),
(507.666,1517.19,o),
(409.336,1741.5,o),
(269.294,1868.2,cs),
(264.566,1872.48,l),
(263.382,1878.74,ls),
(256.718,1913.97,o),
(257.252,1940.6,o),
(264.983,1958.61,cs),
(267.92,1965.46,o),
(271.393,1971.58,o),
(275.4,1976.98,cs),
(279.408,1982.38,o),
(283.894,1986.92,o),
(288.856,1990.62,cs),
(293.82,1994.31,o),
(299.116,1997.08,o),
(304.745,1998.93,cs),
(310.373,2000.78,o),
(316.395,2001.58,o),
(322.812,2001.31,cs),
(329.228,2001.04,o),
(335.774,1999.66,o),
(342.45,1997.16,cs),
(676.588,1898.51,o),
(886.55,1636.65,o),
(972.335,1211.58,c),
(988.644,1195.28,l),
(1208.94,1195.28,ls),
(1219.57,1195.28,o),
(1229.58,1193.14,o),
(1238.99,1188.88,cs),
(1248.39,1184.62,o),
(1256.64,1178.49,o),
(1263.75,1170.48,cs),
(1277.84,1154.61,o),
(1284.89,1137.55,o),
(1284.89,1119.32,cs),
(1284.89,899.027,l),
(1440.66,743.254,ls),
(1461.11,722.805,o),
(1468.39,701.273,o),
(1462.49,678.658,cs),
(1457.56,659.732,o),
(1450.28,645.459,o),
(1440.66,635.84,cs),
(1284.89,480.069,l),
(1284.89,259.772,ls),
(1284.89,237.907,o),
(1276.62,219.637,o),
(1260.09,204.961,cs),
(1252.48,198.202,o),
(1244.35,192.989,o),
(1235.71,189.321,cs),
(1227.06,185.654,o),
(1218.13,183.82,o),
(1208.94,183.82,cs),
(988.644,183.82,l),
(960.101,155.278,l)
);
}
);
width = 1557;
}
);
unicode = 64831;
}
{
glyphname = NameMe.303;
layers = (
{
layerId = m001;
shapes = (
{
closed = 1;
nodes = (
(66,199,ls),
(255,199,o),
(288,227,o),
(288,376,cs),
(288,545.596,o),
(250.227,1192.87,o),
(221,1339,c),
(334,1461,ls),
(361,1490,o),
(378.465,1497,o),
(379,1441,cs),
(405,558,ls),
(406.254,513.007,o),
(409,461,o),
(409,421,cs),
(409,152,o),
(345,0,o),
(66,0,cs),
(-5,0,ls),
(-48,0,o),
(-50,32,o),
(-50,94,cs),
(-50,104,ls),
(-50,167,o),
(-47,199,o),
(-5,199,cs)
);
}
);
width = 554;
}
);
}
{
glyphname = NameMe.304;
layers = (
{
layerId = m001;
shapes = (
{
closed = 1;
nodes = (
(66,199,ls),
(221,199,o),
(298,273,o),
(298,421,cs),
(298,654.152,o),
(267.15,1020.22,o),
(243,1140,c),
(356,1262,ls),
(384,1290,o),
(400.465,1298,o),
(401,1242,cs),
(411,425,ls),
(412,275,o),
(459,199,o),
(610,199,cs),
(652,199,ls),
(678,199,o),
(682,167,o),
(682,102,cs),
(682,95,ls),
(682,32,o),
(678,0,o),
(652,0,cs),
(610,0,ls),
(476,0,o),
(409,50,o),
(349,150,c),
(274,50,o),
(180,0,o),
(66,0,cs),
(-5,0,ls),
(-48,0,o),
(-50,32,o),
(-50,94,cs),
(-50,104,ls),
(-50,167,o),
(-47,199,o),
(-5,199,cs)
);
}
);
width = 647;
}
);
}
{
glyphname = NameMe.306;
layers = (
{
layerId = m001;
shapes = (
{
closed = 1;
nodes = (
(543,199,ls),
(569,199,o),
(573,167,o),
(573,102,cs),
(573,95,ls),
(573,32,o),
(569,0,o),
(543,0,cs),
(523,0,ls),
(394.308,0,o),
(315.304,26.041,o),
(266.103,86,cs),
(200.143,166.382,o),
(187.747,307.723,o),
(181,529,cs),
(171.826,829.867,o),
(162,937,o),
(128,1219,c),
(242,1341,ls),
(269.378,1369.18,o),
(283.404,1367.78,o),
(285,1318,cs),
(295,1006,o),
(296.07,929.747,o),
(301,617,cs),
(304.208,413.453,o),
(301.763,299.809,o),
(357.259,244,cs),
(389.098,211.982,o),
(440.009,199,o),
(522,199,cs)
);
}
);
width = 538;
},
{
anchors = (
{
name = "Anchor-10";
pos = (179.89,1461.48);
},
{
name = "Anchor-7";
pos = (305.394,-215.548);
}
);
layerId = "D346AEB9-DD6D-429C-AFEE-90B4948468D3";
shapes = (
{
closed = 1;
nodes = (
(337.432,528.445,o),
(335.87,427.215,o),
(381.532,376,cs),
(408.448,345.81,o),
(451.774,333,o),
(522,333,cs),
(543,333,ls),
(570,333,o),
(573,294,o),
(573,217,cs),
(573,114,ls),
(573,38,o),
(569,0,o),
(543,0,cs),
(522,0,ls),
(403.467,0,o),
(321.814,22.185,o),
(265.404,74,cs),
(178.813,153.539,o),
(151.707,302.896,o),
(142,549,cs),
(129.497,865.998,o),
(122,977,o),
(88,1185,c),
(249,1357,ls),
(303,1416,o),
(317.245,1421.58,o),
(321,1313,cs),
(330.8,1029.66,o),
(331.239,970.412,o),
(335,702,cs)
);
}
);
width = 538;
}
);
}
{
glyphname = NameMe.65541;
layers = (
{
anchors = (
{
name = "Anchor-10";
pos = (278.669,1291.79);
},
{
name = "Anchor-7";
pos = (356.746,-264.901);
}
);
layerId = m001;
shapes = (
{
closed = 1;
nodes = (
(489,135,o),
(359,0,o),
(92,0,cs),
(-5,0,ls),
(-48,0,o),
(-50,32,o),
(-50,94,cs),
(-50,104,ls),
(-50,167,o),
(-47,199,o),
(-5,199,cs),
(89,199,ls),
(284,199,o),
(370,218,o),
(370,285,cs),
(370,343,o),
(318,466,o),
(284,538,c),
(365,688,ls),
(377,710,o),
(387,712,o),
(396,695,cs),
(464,567,o),
(489,471,o),
(489,349,cs)
);
}
);
width = 599;
}
);
}
{
glyphname = NameMe.65542;
layers = (
{
anchors = (
{
name = "Anchor-10";
pos = (403.594,1177.75);
},
{
name = "Anchor-7";
pos = (327.531,-223.18);
}
);
layerId = m001;
shapes = (
{
closed = 1;
nodes = (
(72,199,ls),
(317,199,o),
(411,265,o),
(415,396,cs),
(418,490,l),
(498,490,l),
(503,399,ls),
(510,266,o),
(574,199,o),
(726,199,cs),
(748,199,ls),
(774,199,o),
(778,167,o),
(778,102,cs),
(778,95,ls),
(778,32,o),
(774,0,o),
(748,0,cs),
(726,0,ls),
(602,0,o),
(524,53,o),
(463,158,c),
(391,53,o),
(252,0,o),
(76,0,cs),
(-5,0,ls),
(-48,0,o),
(-50,32,o),
(-50,94,cs),
(-50,104,ls),
(-50,167,o),
(-47,199,o),
(-5,199,cs)
);
}
);
width = 743;
}
);
}
{
glyphname = NameMe.65567;
layers = (
{
layerId = m001;
shapes = (
{
closed = 1;
nodes = (
(200,-16,o),
(244,-26,o),
(295,-26,cs),
(403,-26,o),
(471,-6,o),
(501,29,cs),
(508,37,o),
(511,43,o),
(511,50,cs),
(511,81,o),
(437,92,o),
(371,110,cs),
(340,118,o),
(324,137,o),
(324,167,cs),
(324,178,o),
(326,191,o),
(330,204,cs),
(361,310,o),
(412,377,o),
(481,406,cs),
(504,416,o),
(529,420,o),
(554,420,cs),
(577,420,o),
(601,416,o),
(625,408,c),
(623,384,o),
(616,348,o),
(605,301,c),
(575,303,l),
(556,303,ls),
(453,303,o),
(408,256,o),
(377,187,c),
(515,156,ls),
(550,148,o),
(567,125,o),
(567,87,cs),
(567,41,o),
(554,-2,o),
(526,-38,cs),
(481,-98,o),
(403,-128,o),
(294,-128,cs),
(231,-128,o),
(174,-118,o),
(126,-98,c),
(163,2,l)
);
}
);
width = 713;
},
{
layerId = "D346AEB9-DD6D-429C-AFEE-90B4948468D3";
shapes = (
{
closed = 1;
nodes = (
(556,298,ls),
(457.372,298,o),
(414.058,254.281,o),
(384.12,190.525,c),
(516.114,160.874,ls),
(553.317,152.371,o),
(572,126.82,o),
(572,87,cs),
(572,40.072,o),
(558.664,-4.148,o),
(529.974,-41.035,cs),
(483.729,-102.695,o),
(403.804,-133,o),
(294,-133,cs),
(230.477,-133,o),
(172.828,-122.928,o),
(124.077,-102.615,cs),
(119.644,-100.768,l),
(121.311,-96.265,l),
(158.311,3.735,l),
(160.225,8.91,l),
(165.187,6.496,ls),
(201.433,-11.137,o),
(244.652,-21,o),
(295,-21,cs),
(402.682,-21,o),
(468.94,-0.72,o),
(497.22,32.273,cs),
(503.963,39.979,o),
(506,44.64,o),
(506,50,cs),
(506,74.518,o),
(438.605,86.38,o),
(369.717,105.167,cs),
(337.065,113.594,o),
(319,134.738,o),
(319,167,cs),
(319,178.576,o),
(321.096,192.065,o),
(325.211,205.437,cs),
(356.422,312.16,o),
(408.226,380.837,o),
(479.034,410.598,cs),
(502.743,420.906,o),
(528.494,425,o),
(554,425,cs),
(577.58,425,o),
(602.108,420.901,o),
(626.581,412.743,cs),
(630.309,411.501,l),
(629.983,407.585,ls),
(627.94,383.068,o),
(620.893,346.968,o),
(609.868,299.861,cs),
(608.901,295.729,l),
(604.667,296.011,l),
(574.834,298,l)
);
}
);
width = 713;
}
);
}
{
glyphname = "ain-ar.fina";
layers = (
{
anchors = (
{
name = bottom;
pos = (654.792,-826.821);
},
{
name = top;
pos = (711.062,1126.07);
}
);
layerId = m001;
shapes = (
{
closed = 1;
nodes = (
(945,783,o),
(1032,738,o),
(1032,636,cs),
(1032,560,o),
(981,479,o),
(830,421,c),
(869,264,o),
(1013,199,o),
(1309,199,cs),
(1338,199,ls),
(1364,199,o),
(1368,167,o),
(1368,102,cs),
(1368,95,ls),
(1368,32,o),
(1364,0,o),
(1338,0,cs),
(1309,0,ls),
(974,0,o),
(800,132,o),
(747,397,c),
(442,331,o),
(204,93,o),
(204,-150,cs),
(204,-391,o),
(496,-455,o),
(764,-455,cs),
(882,-455,o),
(1045,-440,o),
(1194,-422,c),
(1196,-425,o),
(1194,-433,o),
(1188,-446,cs),
(1124,-581,o),
(981,-636,o),
(753,-636,cs),
(355,-636,o),
(110,-494,o),
(110,-157,cs),
(110,203,o),
(388,437,o),
(673,523,c),
(647,588,o),
(541,621,o),
(354,622,c),
(354,718,l),
(421,761,o),
(553,783,o),
(749,783,cs)
);
}
);
width = 1333;
},
{
anchors = (
{
name = bottom;
pos = (654.792,-826.821);
},
{
name = top;
pos = (711.062,1126.07);
}
);
layerId = "D346AEB9-DD6D-429C-AFEE-90B4948468D3";
shapes = (
{
closed = 1;
nodes = (
(959,874,o),
(1075,824,o),
(1075,708,cs),
(1075,597,o),
(1000,502,o),
(852,421,c),
(869,362,o),
(1006,333,o),
(1309,333,cs),
(1338,333,ls),
(1363,333,o),
(1368,282,o),
(1368,181,cs),
(1368,114,ls),
(1368,38,o),
(1363,0,o),
(1338,0,cs),
(1309,0,ls),
(957,0,o),
(772,134,o),
(725,382,c),
(393,278,o),
(236,74,o),
(236,-91,cs),
(236,-290.822,o),
(515.606,-362,o),
(772,-362,cs),
(934,-362,o),
(1041,-343,o),
(1128,-327,cs),
(1185,-316,o),
(1220,-308,o),
(1189,-373,cs),
(1105,-549,o),
(964,-637,o),
(714,-637,cs),
(335,-637,o),
(94,-469,o),
(94,-130,cs),
(94,243,o),
(365,473,o),
(649,566,c),
(612,611,o),
(509,664,o),
(339,665,c),
(339,800,l),
(414,849,o),
(551,874,o),
(750,874,cs)
);
}
);
width = 1333;
}
);
}
{
glyphname = "ain-ar.init";
layers = (
{
anchors = (
{
name = "Anchor-10";
pos = (560.49,1193.27);
},
{
name = "Anchor-7";
pos = (496.566,-245.979);
}
);
layerId = m001;
shapes = (
{
closed = 1;
nodes = (
(315,199,l),
(236,252,o),
(207,334,o),
(207,413,cs),
(207,657,o),
(391,851,o),
(598,851,cs),
(736,851,o),
(840,787,o),
(913,639,c),
(878,596,l),
(796,635,o),
(716,655,o),
(639,655,cs),
(486,655,o),
(309,539,o),
(309,452,cs),
(309,413,o),
(349,367,o),
(424,312,cs),
(486,267,o),
(513,247,o),
(527,247,cs),
(560,247,o),
(663,266,o),
(837,303,cs),
(981,334,ls),
(1017,342,o),
(1029,335,o),
(1018,313,cs),
(930,136,l),
(647,46,o),
(374,0,o),
(67,0,cs),
(-5,0,ls),
(-48,0,o),
(-50,32,o),
(-50,94,cs),
(-50,104,ls),
(-50,167,o),
(-47,199,o),
(-5,199,cs)
);
}
);
width = 1128;
}
);
}
{
glyphname = "ain-ar.medi";
layers = (
{
anchors = (
{
name = "Anchor-10";
pos = (553.643,1082.02);
},
{
name = "Anchor-7";
pos = (563.281,-237.563);
}
);
layerId = m001;
shapes = (
{
closed = 1;
nodes = (
(136,199,ls),
(374,199,o),
(494,209,o),
(554,264,c),
(521,388,o),
(374,447,o),
(224,465,c),
(224,569,l),
(335,609,o),
(449,629,o),
(606,629,cs),
(753.908,629,o),
(870.017,583.059,o),
(870.017,490.402,cs),
(870.017,441.65,o),
(824.765,369.851,o),
(712,265,c),
(770,201,o),
(869,199,o),
(1004,199,cs),
(1064,199,ls),
(1090,199,o),
(1094,167,o),
(1094,102,cs),
(1094,95,ls),
(1094,32,o),
(1090,0,o),
(1064,0,cs),
(1000,0,ls),
(829,0,o),
(724,39,o),
(627,155,c),
(497,39,o),
(308,0,o),
(121,0,cs),
(-5,0,ls),
(-48,0,o),
(-50,32,o),
(-50,94,cs),
(-50,104,ls),
(-50,167,o),
(-47,199,o),
(-5,199,cs)
);
}
);
width = 1059;
}
);
}
{
glyphname = "alef-ar.fina";
layers = (
{
anchors = (
{
name = "Anchor-10";
pos = (187.76,1630.01);
},
{
name = "Anchor-7";
pos = (275.139,-234.32);
}
);
layerId = m001;
shapes = (
{
closed = 1;
nodes = (
(543,199,ls),
(569,199,o),
(573,167,o),
(573,102,cs),
(573,95,ls),
(573,32,o),
(569,0,o),
(543,0,cs),
(523,0,ls),
(400.183,0,o),
(322.621,23.718,o),
(273.03,78,cs),
(200.994,156.849,o),
(187.977,300.189,o),
(181,529,cs),
(171.826,829.867,o),
(162,1107,o),
(128,1389,c),
(242,1511,ls),
(269.378,1539.18,o),
(283.405,1537.78,o),
(285,1488,cs),
(295,1176,o),
(300.07,929.747,o),
(301,617,cs),
(301.588,419.342,o),
(299.964,306.468,o),
(351.456,249,cs),
(383.422,213.324,o),
(435.858,199,o),
(522,199,cs)
);
}
);
width = 538;
}
);
}
{
glyphname = "alefMaksura-ar.init";
layers = (
{
anchors = (
{
name = "Anchor-10";
pos = (328.669,1291.79);
},
{
name = "Anchor-7";
pos = (356.746,-264.901);
}
);
layerId = m001;
shapes = (
{
closed = 1;
nodes = (
(159,199,ls),
(354,199,o),
(440,219,o),
(440,285,cs),
(440,343,o),
(388,466,o),
(354,538,c),
(435,688,ls),
(447,710,o),
(457,712,o),
(466,695,cs),
(534,567,o),
(559,471,o),
(559,349,cs),
(559,136,o),
(429,-3.27,o),
(162,0,cs),
(-5,0,ls),
(-48,0,o),
(-50,32,o),
(-50,94,cs),
(-50,104,ls),
(-50,167,o),
(-47,199,o),
(-5,199,cs)
);
}
);
width = 669;
}
);
}
{
glyphname = "alefMaksura-ar.medi";
layers = (
{
anchors = (
{
name = "Anchor-10";
pos = (403.594,1177.75);
},
{
name = "Anchor-7";
pos = (377.531,-223.18);
}
);
layerId = m001;
shapes = (
{
closed = 1;
nodes = (
(122,199,ls),
(367,199,o),
(461,265,o),
(465,396,cs),
(468,490,l),
(548,490,l),
(553,399,ls),
(560,266,o),
(624,199,o),
(776,199,cs),
(798,199,ls),
(824,199,o),
(828,167,o),
(828,102,cs),
(828,95,ls),
(828,32,o),
(824,0,o),
(798,0,cs),
(776,0,ls),
(652,0,o),
(574,53,o),
(513,158,c),
(441,53,o),
(302,0,o),
(126,0,cs),
(-5,0,ls),
(-48,0,o),
(-50,32,o),
(-50,94,cs),
(-50,104,ls),
(-50,167,o),
(-47,199,o),
(-5,199,cs)
);
}
);
width = 793;
}
);
}
{
glyphname = arabic_2dots;
layers = (
{
layerId = m001;
shapes = (
{
closed = 1;
nodes = (
(592,125,l),
(460,-7,l),
(328,125,l),
(460,257,l)
);
},
{
closed = 1;
nodes = (
(295,125,l),
(163,-7,l),
(31,125,l),
(163,257,l)
);
}
);
width = 622;
}
);
}
{
glyphname = arabic_3dots;
layers = (
{
layerId = m001;
shapes = (
{
closed = 1;
nodes = (
(423.474,350.059,l),
(300.001,226.582,l),
(176.526,350.059,l),
(300.001,473.534,l)
);
},
{
closed = 1;
nodes = (
(576.495,99.196,l),
(453.02,-24.279,l),
(329.545,99.196,l),
(453.02,222.673,l)
);
},
{
closed = 1;
nodes = (
(270.455,99.196,l),
(146.979,-24.279,l),
(23.505,99.196,l),
(146.979,222.673,l)
);
}
);
width = 600;
}
);
}
{
glyphname = arabic_3dots_a;
layers = (
{
layerId = m001;
shapes = (
{
closed = 1;
nodes = (
(201,-112,l),
(324,12,l),
(447,-112,l),
(324,-235,l)
);
},
{
closed = 1;
nodes = (
(354,139,l),
(477,263,l),
(600,139,l),
(477,16,l)
);
},
{
closed = 1;
nodes = (
(48,139,l),
(171,263,l),
(294,139,l),
(171,16,l)
);
}
);
width = 646;
},
{
layerId = "D346AEB9-DD6D-429C-AFEE-90B4948468D3";
shapes = (
{
closed = 1;
nodes = (
(174,-117,l),
(324,33,l),
(474,-117,l),
(324,-267,l)
);
},
{
closed = 1;
nodes = (
(345,139,l),
(495,289,l),
(640,139,l),
(495,-11,l)
);
},
{
closed = 1;
nodes = (
(8,139,l),
(158,289,l),
(308,139,l),
(158,-11,l)
);
}
);
width = 647;
}
);
}
{
glyphname = arabic_dot;
layers = (
{
layerId = m001;
shapes = (
{
closed = 1;
nodes = (
(257.336,129.318,l),
(117.974,-10.047,l),
(-21.39,129.318,l),
(117.974,268.681,l)
);
}
);
width = 236;
}
);
}
{
glyphname = arabic_gaf_bar;
layers = (
{
layerId = m001;
shapes = (
{
closed = 1;
nodes = (
(766.747,2062.1,l),
(63.175,1765.75,l),
(102.133,1865.26,l),
(769.685,2152.04,ls),
(782.359,2157.48,o),
(787.667,2155.1,o),
(785,2139,cs)
);
}
);
width = 801;
},
{
layerId = "D346AEB9-DD6D-429C-AFEE-90B4948468D3";
shapes = (
{
closed = 1;
nodes = (
(766.747,2112.1,l),
(63.175,1815.75,l),
(106.133,1936.26,l),
(773.685,2223.04,ls),
(786.312,2228.59,o),
(791.292,2223.32,o),
(788.625,2207.23,cs)
);
}
);
width = 801;
}
);
}
{
glyphname = "behDotless-ar.fina";
layers = (
{
anchors = (
{
name = "Anchor-10";
pos = (1038.94,1819.73);
},
{
name = "Anchor-7";
pos = (968.624,-364.904);
}
);
layerId = m001;
shapes = (
{
closed = 1;
nodes = (
(218,236,o),
(429,141,o),
(845,141,cs),
(1370,141,o),
(1636,246,o),
(1640,396,cs),
(1642,490,l),
(1723,490,l),
(1727,399,ls),
(1734,266,o),
(1808,199,o),
(1950,199,cs),
(1973,199,ls),
(1999,199,o),
(2003,167,o),
(2003,102,cs),
(2003,95,ls),
(2003,32,o),
(1999,0,o),
(1973,0,cs),
(1951,0,ls),
(1827,0,o),
(1739,53,o),
(1678,158,c),
(1531,25,o),
(1208,-57,o),
(838,-57,cs),
(354,-57,o),
(110,67,o),
(110,324,cs),
(110,423,o),
(145,544,o),
(214,647,c),
(273,624,l),
(237,532,o),
(218,461,o),
(218,398,cs)
);
}
);
width = 1968;
}
);
}
{
glyphname = "dal-ar.fina";
layers = (
{
anchors = (
{
name = "Anchor-10";
pos = (667.225,1254.18);
},
{
name = "Anchor-7";
pos = (470.662,-216.64);
}
);
layerId = m001;
shapes = (
{
closed = 1;
nodes = (
(1000,0,o),
(904,79,o),
(836,237,c),
(755,96,l),
(669,32,o),
(556,0,o),
(414,0,cs),
(211,0,o),
(110,86,o),
(110,258,cs),
(110,294,o),
(117,341,o),
(132,403,c),
(188,393,l),
(186,379,o),
(185,366,o),
(185,354,cs),
(185,244,o),
(264,203,o),
(433,203,cs),
(611,203,o),
(773,220,o),
(773,339,cs),
(773,354,o),
(772,371,o),
(767,388,cs),
(596,860,l),
(674,972,ls),
(684,986,o),
(692,994,o),
(699,994,cs),
(706,994,o),
(712,984,o),
(716,967,cs),
(891,433,ls),
(945.462,266.813,o),
(987,199,o),
(1159,199,cs),
(1184,199,ls),
(1210,199,o),
(1214,167,o),
(1214,102,cs),
(1214,95,ls),
(1214,32,o),
(1210,0,o),
(1184,0,cs),
(1159,0,ls)
);
}
);
width = 1179;
},
{
anchors = (
{
name = "Anchor-10";
pos = (667.225,1274.18);
},
{
name = "Anchor-7";
pos = (470.662,-216.64);
}
);
layerId = "D346AEB9-DD6D-429C-AFEE-90B4948468D3";
shapes = (
{
closed = 1;
nodes = (
(1006,0,o),
(918,84,o),
(836,233,c),
(763,102,l),
(670,35,o),
(551,2,o),
(414,2,cs),
(188,3,o),
(83,110,o),
(83,326,cs),
(83,375,o),
(96,447,o),
(121,541,c),
(213,522,l),
(211,501,o),
(209,481,o),
(209,459,cs),
(209,376,o),
(279,335,o),
(433,335,cs),
(571,335,o),
(746,360,o),
(746,437,cs),
(746,448,o),
(744,461,o),
(741,475,c),
(576,928,l),
(686,1084,ls),
(700,1104,o),
(711,1114,o),
(719,1114,cs),
(729,1114,o),
(737,1101,o),
(746,1073,cs),
(914,554,ls),
(961,410,o),
(1004,333,o),
(1158,333,cs),
(1183,333,ls),
(1210,333,o),
(1214,294,o),
(1214,217,cs),
(1214,114,ls),
(1214,38,o),
(1210,0,o),
(1183,0,cs),
(1158,0,ls)
);
}
);
width = 1179;
}
);
}
{
glyphname = "fehDotless-ar.fina";
layers = (
{
anchors = (
{
name = "Anchor-10";
pos = (768.916,2002.79);
},
{
name = "Anchor-7";
pos = (959.232,-471.314);
}
);
layerId = m001;
shapes = (
{
closed = 1;
nodes = (
(1316,-27,o),
(1108,-57,o),
(838,-57,cs),
(354,-57,o),
(110,67,o),
(110,324,cs),
(110,423,o),
(145,544,o),
(214,647,c),
(273,624,l),
(237,532,o),
(218,461,o),
(218,398,cs),
(218,236,o),
(429,141,o),
(845,141,cs),
(1134,141,o),
(1270,160,o),
(1399,197,c),
(1321,271,o),
(1261,361,o),
(1261,466,cs),
(1261,650,o),
(1389,830,o),
(1544,830,cs),
(1694,830,o),
(1802,656,o),
(1802,489,cs),
(1802,384,o),
(1775,300,o),
(1692,216,c),
(1762,202,o),
(1828,199,o),
(1948,199,cs),
(1981,199,ls),
(2007,199,o),
(2011,167,o),
(2011,102,cs),
(2011,95,ls),
(2011,32,o),
(2007,0,o),
(1981,0,cs),
(1948,0,ls),
(1815,0,o),
(1705,8,o),
(1530,102,c)
);
},
{
closed = 1;
nodes = (
(1358,373,o),
(1467,290,o),
(1535,257,c),
(1602,289,o),
(1706,380,o),
(1706,452,cs),
(1706,535,o),
(1601,631,o),
(1536,631,cs),
(1458,631,o),
(1358,540,o),
(1358,452,cs)
);
}
);
width = 1976;
}
);
}
{
glyphname = "fehDotless-ar.init";
layers = (
{
anchors = (
{
name = "Anchor-10";
pos = (495.194,2065.36);
},
{
name = "Anchor-7";
pos = (398.773,-381.183);
}
);
layerId = m001;
shapes = (
{
closed = 1;
nodes = (
(229,200,ls),
(529,201,o),
(591,255,o),
(591,404,c),
(521,379,o),
(458,368,o),
(381,368,cs),
(235,368,o),
(143,439,o),
(143,595,cs),
(143,827,o),
(266,999,o),
(398,999,cs),
(635,999,o),
(688,674,o),
(688,443,cs),
(688,134,o),
(550,0,o),
(204,0,cs),
(-5,0,ls),
(-48,0,o),
(-50,32,o),
(-50,94,cs),
(-50,104,ls),
(-50,167,o),
(-47,199,o),
(-5,199,cs)
);
},
{
closed = 1;
nodes = (
(235,575,o),
(310,560,o),
(386,560,cs),
(464,560,o),
(529,574,o),
(578,599,c),
(558,702,o),
(507,813,o),
(388,813,cs),
(297,813,o),
(235,712,o),
(235,626,cs)
);
}
);
width = 798;
}
);
}
{
glyphname = "fehDotless-ar.medi";
layers = (
{
anchors = (
{
name = "Anchor-10";
pos = (463.193,1502.44);
},
{
name = "Anchor-7";
pos = (436.405,-213.618);
}
);
layerId = m001;
shapes = (
{
closed = 1;
nodes = (
(82,200,ls),
(221,202,o),
(280,203,o),
(357,214,c),
(279,298,o),
(250,381,o),
(250,466,cs),
(250,650,o),
(378,830,o),
(533,830,cs),
(683,830,o),
(791,656,o),
(791,489,cs),
(791,384,o),
(764,300,o),
(681,216,c),
(751,202,o),
(817,199,o),
(937,199,cs),
(970,199,ls),
(996,199,o),
(1000,167,o),
(1000,102,cs),
(1000,95,ls),
(1000,32,o),
(996,0,o),
(970,0,cs),
(937,0,ls),
(804,0,o),
(691,8,o),
(516,102,c),
(351,18,o),
(231,0,o),
(82,0,cs),
(-5,0,ls),
(-48,0,o),
(-50,32,o),
(-50,94,cs),
(-50,104,ls),
(-50,167,o),
(-47,199,o),
(-5,199,cs)
);
},
{
closed = 1;
nodes = (
(347,373,o),
(456,290,o),
(524,257,c),
(591,289,o),
(695,380,o),
(695,452,cs),
(695,535,o),
(590,631,o),
(525,631,cs),
(447,631,o),
(347,540,o),
(347,452,cs)
);
}
);
width = 965;
}
);
}
{
glyphname = "gaf-ar.fina";
layers = (
{
anchors = (
{
name = "Anchor-10";
pos = (1317.01,1561.92);
},
{
name = "Anchor-7";
pos = (886.157,-267.146);
}
);
layerId = m001;
shapes = (
{
closed = 1;
nodes = (
(1431,820,o),
(1600,682,o),
(1759,483,cs),
(1922,279,o),
(2054,200,o),
(2183,199,cs),
(2207,199,ls),
(2230,199,o),
(2236,167,o),
(2236,102,cs),
(2236,95,ls),
(2236,32,o),
(2233,0,o),
(2207,0,cs),
(2184,0,ls),
(2025,0,o),
(1891,108,o),
(1727,311,c),
(1655,61,o),
(1264,-57,o),
(838,-57,cs),
(354,-57,o),
(110,67,o),
(110,324,cs),
(110,423,o),
(145,544,o),
(214,647,c),
(273,624,l),
(237,532,o),
(218,461,o),
(218,398,cs),
(218,236,o),
(429,141,o),
(845,141,cs),
(1232,141,o),
(1639,207,o),
(1639,390,cs),
(1639,486,o),
(1163,829,o),
(1077,885,cs),
(1059,897,o),
(1052,914,o),
(1052,932,cs),
(1093,1064,ls),
(1096,1076,o),
(1102,1084,o),
(1110,1087,cs),
(1906,1423,ls),
(1920,1429,o),
(1927,1425,o),
(1925,1412,cs),
(1899,1262,l),
(1218,978,l)
);
},
{
pos = (1045,-777);
ref = arabic_gaf_bar;
scale = (1.1342,1.1342);
}
);
width = 2201;
}
);
}
{
glyphname = "gaf-ar.init";
layers = (
{
anchors = (
{
name = "Anchor-10";
pos = (290.851,1565.67);
},
{
name = "Anchor-7";
pos = (314.687,-250.871);
}
);
layerId = m001;
shapes = (
{
closed = 1;
nodes = (
(138,199,ls),
(342,199,o),
(608,235.751,o),
(608,378,cs),
(608,510.279,o),
(194,796,o),
(51,890,cs),
(32.673,902.047,o),
(26,922,o),
(25.573,935.934,cs),
(25.573,946.564,o),
(43.873,993.878,o),
(65.841,1066.09,cs),
(69.144,1078.2,o),
(74.831,1085.96,o),
(82.901,1089.36,cs),
(878.93,1425.01,ls),
(893.3,1431.14,o),
(899.439,1427.5,o),
(897.35,1414.08,cs),
(871.338,1264.06,l),
(191.112,978.733,l),
(548.112,736.733,o),
(702,556,o),
(702,392,cs),
(702,173,o),
(519,0,o),
(138,0,cs),
(-5,0,ls),
(-48,0,o),
(-50,32,o),
(-50,94,cs),
(-50,104,ls),
(-50,167,o),
(-47,199,o),
(-5,199,cs)
);
},
{
pos = (17,-777);
ref = arabic_gaf_bar;
scale = (1.1342,1.1342);
}
);
width = 955;
}
);
}
{
glyphname = "gaf-ar.medi";
layers = (
{
anchors = (
{
name = "Anchor-10";
pos = (290.851,1565.67);
},
{
name = "Anchor-7";
pos = (314.687,-250.871);
}
);
layerId = m001;
shapes = (
{
closed = 1;
nodes = (
(138,199,ls),
(342,199,o),
(607,235.751,o),
(607,378,cs),
(607,510.279,o),
(135.044,822.119,o),
(51,890,cs),
(35,905,o),
(27,921,o),
(25.573,935.934,cs),
(25.573,946.564,o),
(43.873,993.878,o),
(65.841,1066.09,cs),
(69.144,1078.2,o),
(74.831,1085.96,o),
(82.901,1089.36,cs),
(878.93,1425.01,ls),
(893.3,1431.14,o),
(899.439,1427.5,o),
(897.35,1414.08,cs),
(871.338,1264.06,l),
(191.112,978.733,l),
(404.112,820.733,o),
(579,684,o),
(738,485,cs),
(901.388,280.509,o),
(1035,199,o),
(1156,199,cs),
(1179,199,ls),
(1205,199,o),
(1209,167,o),
(1209,102,cs),
(1209,95,ls),
(1209,32,o),
(1205,0,o),
(1179,0,cs),
(1156,0,ls),
(1006,0,o),
(848,122,o),
(685,325,c),
(671,172,o),
(519,0,o),
(138,0,cs),
(-5,0,ls),
(-48,0,o),
(-50,32,o),
(-50,94,cs),
(-50,104,ls),
(-50,167,o),
(-47,199,o),
(-5,199,cs)
);
},
{
pos = (17,-777);
ref = arabic_gaf_bar;
scale = (1.1342,1.1342);
}
);
width = 1174;
}
);
}
{
glyphname = "hah-ar.fina";
layers = (
{
anchors = (
{
name = "Anchor-10";
pos = (597.798,1120.94);
},
{
name = "Anchor-7";
pos = (639.792,-826.821);
}
);
layerId = m001;
shapes = (
{
closed = 1;
nodes = (
(985,266.553,o),
(1079,199,o),
(1288,199,cs),
(1337,199,ls),
(1363,199,o),
(1376,167,o),
(1376,102,cs),
(1376,95,ls),
(1376,32,o),
(1363,0,o),
(1337,0,cs),
(1288,0,ls),
(1035,0,o),
(895.948,130.998,o),
(884,393,cs),
(882,436.855,l),
(512.511,359.437,o),
(202,158.197,o),
(202,-152,cs),
(202,-395.164,o),
(494.24,-453,o),
(762,-453,cs),
(905,-453,o),
(1057,-438,o),
(1192,-422,c),
(1192,-423,o),
(1193,-424,o),
(1193,-425,cs),
(1193,-429,o),
(1190,-436,o),
(1186,-446,cs),
(1122,-579,o),
(978,-636,o),
(752,-636,cs),
(352.542,-636,o),
(108,-496.145,o),
(108,-157,cs),
(108,252.352,o),
(427.58,507.14,o),
(776,567,c),
(629.96,596.771,o),
(457.951,647,o),
(368,647,cs),
(294,647,o),
(224,608,o),
(159,527,c),
(100,563,l),
(172.902,741.663,o),
(264.735,833,o),
(388,833,cs),
(440,831,o),
(633,781,o),
(968,684,cs),
(1035,664,o),
(1110,653,o),
(1194,652,cs),
(1203,652,o),
(1208,650,o),
(1208,645,cs),
(1208,644,o),
(1208,642,o),
(1207,640,cs),
(1135,470,l),
(1081.38,466.992,o),
(1027.82,461.496,o),
(975,453.553,c)
);
}
);
width = 1332;
}
);
}
{
glyphname = "hah-ar.init";
layers = (
{
anchors = (
{
name = "Anchor-10";
pos = (574.444,1175.68);
},
{
name = "Anchor-7";
pos = (552.039,-210.817);
}
);
layerId = m001;
shapes = (
{
closed = 1;
nodes = (
(71,199,ls),
(290,199,o),
(477,241,o),
(670,325,cs),
(953,448,l),
(782.298,512.021,o),
(557.226,602,o),
(466,602,cs),
(361,602,o),
(274,557,o),
(203,469,c),
(143,506,l),
(234,701,o),
(346,793,o),
(482,793,cs),
(710.375,793,o),
(974.707,548.94,o),
(1371,544,cs),
(1391,543.751,o),
(1397,535,o),
(1386,515,cs),
(1308,374,l),
(1229,374,ls),
(933,374,o),
(630,0,o),
(71,0,cs),
(-5,0,ls),
(-48,0,o),
(-50,32,o),
(-50,94,cs),
(-50,104,ls),
(-50,167,o),
(-47,199,o),
(-5,199,cs)
);
}
);
width = 1472;
}
);
}
{
glyphname = "hah-ar.medi";
layers = (
{
anchors = (
{
name = "Anchor-10";
pos = (574.444,1175.68);
},
{
name = "Anchor-7";
pos = (552.039,-210.817);
}
);
layerId = m001;
shapes = (
{
closed = 1;
nodes = (
(71,199,ls),
(290,199,o),
(477,241,o),
(670,325,cs),
(953,448,l),
(782,512,o),
(557,602,o),
(466,602,cs),
(361,602,o),
(274,557,o),
(203,469,c),
(143,506,l),
(234,701,o),
(346,793,o),
(482,793,cs),
(710,793,o),
(975,549,o),
(1371,544,cs),
(1391,544,o),
(1397,535,o),
(1386,515,cs),
(1308,374,l),
(1229,374,ls),
(1177,374,o),
(1125,363,o),
(1072,344,c),
(1072,247,o),
(1141,199,o),
(1307,199,cs),
(1515,199,ls),
(1541,199,o),
(1545,167,o),
(1545,102,cs),
(1545,95,ls),
(1545,32,o),
(1541,0,o),
(1515,0,cs),
(1307,0,ls),
(1074,0,o),
(972,93,o),
(971,302,c),
(740,193,o),
(467,0,o),
(71,0,cs),
(-5,0,ls),
(-48,0,o),
(-50,32,o),
(-50,94,cs),
(-50,104,ls),
(-50,167,o),
(-47,199,o),
(-5,199,cs)
);
}
);
width = 1510;
}
);
}
{
glyphname = "heh-ar.fina";
layers = (
{
anchors = (
{
name = "Anchor-10";
pos = (610.972,1274.12);
},
{
name = "Anchor-7";
pos = (443.352,-215.97);
}
);
layerId = m001;
shapes = (
{
closed = 1;
nodes = (
(1046,199,ls),
(1072,199,o),
(1074,167,o),
(1074,102,cs),
(1074,95,ls),
(1074,32,o),
(1072,0,o),
(1046,0,cs),
(1020,0,ls),
(864,0,o),
(754,80,o),
(699,241,c),
(549,153,l),
(352,154,o),
(124,175,o),
(113,267,cs),
(111,286,o),
(110,305,o),
(110,323,cs),
(110,570,o),
(287,660,o),
(570,796,c),
(537,946,l),
(624,1031,ls),
(640,1048,o),
(651,1044,o),
(656,1020,cs),
(782,394,ls),
(808,264,o),
(887,199,o),
(1020,199,cs)
);
},
{
closed = 1;
nodes = (
(593,345,o),
(643,346,o),
(670,347,c),
(602,655,l),
(442,606,o),
(237,507,o),
(237,426,cs),
(237,362,o),
(368,345,o),
(532,345,cs)
);
}
);
width = 1039;
}
);
}
{
glyphname = "heh-ar.init";
layers = (
{
anchors = (
{
name = "Anchor-10";
pos = (529.266,1311.54);
},
{
name = "Anchor-7";
pos = (526.556,-213.307);
}
);
layerId = m001;
shapes = (
{
closed = 1;
nodes = (
(142,199.002,ls),
(213,199,o),
(320.761,199.187,o),
(359.974,206.002,c),
(287.94,237.902,o),
(188.838,299.264,o),
(188.838,430.78,cs),
(188.838,585.072,o),
(268.804,714.063,o),
(396.659,787.571,c),
(291,825,l),
(352.48,1004.96,l),
(709.612,841.255,ls),
(982.616,716.114,o),
(1110.23,576.547,o),
(1110.23,407.846,cs),
(1110.23,278.053,o),
(1033.63,57.394,o),
(929.148,57.394,cs),
(813.38,57.394,o),
(659,95,o),
(528.14,134.411,c),
(372.69,50.804,o),
(188,0,o),
(48.685,0,cs),
(-5,0,ls),
(-48,0,o),
(-50,32,o),
(-50,94,cs),
(-50,104,ls),
(-50,167,o),
(-47,199,o),
(-5,199,cs)
);
},
{
closed = 1;
nodes = (
(755.176,245.516,o),
(864.635,214.878,o),
(968.843,214.091,c),
(994.948,269.845,o),
(1012.5,330.485,o),
(1012.5,378.012,cs),
(1012.5,487.729,o),
(905.381,544.065,o),
(754,609,c),
(754.781,596.958,o),
(755.165,585.013,o),
(755.165,573.19,cs),
(755.165,453.299,o),
(715.741,346.101,o),
(652.466,280.003,c)
);
},
{
closed = 1;
nodes = (
(599.947,370.359,o),
(654.556,446.861,o),
(654.556,561.203,cs),
(654.556,645.974,o),
(599.493,697.466,o),
(515.097,697.466,cs),
(401.148,697.466,o),
(290.424,597.534,o),
(290.424,477.671,cs),
(290.424,400.212,o),
(463.396,339.064,o),
(529.743,323.531,c)
);
}
);
width = 1221;
}
);
}
{
glyphname = "heh-ar.medi";
layers = (
{
anchors = (
{
name = "Anchor-10";
pos = (483.603,1154.79);
},
{
name = "Anchor-7";
pos = (585.778,-775.076);
}
);
layerId = m001;
shapes = (
{
closed = 1;
nodes = (
(240,199,l),
(251,445,o),
(397,809,o),
(493,809,cs),
(546,809,o),
(752,565,o),
(752,407,cs),
(752,156,o),
(546,20,o),
(331,-1,c),
(356,-93,o),
(502,-242,o),
(596,-309,c),
(646,36,o),
(660,199,o),
(988,199,cs),
(1021,199,ls),
(1047,199,o),
(1051,167,o),
(1051,102,cs),
(1051,95,ls),
(1051,32,o),
(1047,0,o),
(1021,0,cs),
(919,0,ls),
(641,0,o),
(697,-85,o),
(774,-420,c),
(650,-532,l),
(420,-368,o),
(283,-238,o),
(248,0,c),
(-5,0,ls),
(-48,0,o),
(-50,32,o),
(-50,94,cs),
(-50,104,ls),
(-50,167,o),
(-47,199,o),
(-5,199,cs)
);
},
{
closed = 1;
nodes = (
(542,204,o),
(661,250,o),
(661,356,cs),
(661,413,o),
(593,486,o),
(476,596,c),
(371,432,o),
(339,326,o),
(320,199,c)
);
}
);
width = 1016;
},
{
anchors = (
{
name = "Anchor-10";
pos = (483.603,1154.79);
},
{
name = "Anchor-7";
pos = (585.778,-775.076);
}
);
layerId = "D346AEB9-DD6D-429C-AFEE-90B4948468D3";
shapes = (
{
closed = 1;
nodes = (
(222,333,l),
(236,476,o),
(354,943,o),
(492,943,cs),
(577,943,o),
(782,687,o),
(782,485,cs),
(782,271,o),
(584,31,o),
(356,2,c),
(381,-70,o),
(478,-187,o),
(593,-243,c),
(662,154,o),
(790,333,o),
(988,333,cs),
(1021,333,ls),
(1048,333,o),
(1051,294,o),
(1051,217,cs),
(1051,114,ls),
(1051,38,o),
(1048,0,o),
(1021,0,cs),
(989,0,ls),
(644,0,o),
(713,-198,o),
(817,-418,c),
(642,-569,l),
(413,-406,o),
(268,-249,o),
(227,0,c),
(-5,0,ls),
(-48,0,o),
(-50,38,o),
(-50,113,cs),
(-50,219,ls),
(-50,295,o),
(-48,333,o),
(-5,333,cs)
);
},
{
closed = 1;
nodes = (
(545,342,o),
(642,354,o),
(642,434,cs),
(642,466,o),
(568,560,o),
(459,636,c),
(383,527,o),
(360,418,o),
(342,334,c)
);
}
);
width = 1016;
}
);
}
{
glyphname = "kaf-ar.fina";
layers = (
{
anchors = (
{
name = "Anchor-10";
pos = (959.059,1412.01);
},
{
name = "Anchor-7";
pos = (876.157,-267.146);
}
);
layerId = m001;
shapes = (
{
closed = 1;
nodes = (
(1185,598,o),
(1062,526,o),
(917,526,cs),
(832,526,o),
(755,538,o),
(686,561,c),
(700,702,l),
(770,677,o),
(843,665,o),
(919,665,cs),
(1025,665,o),
(1098,688,o),
(1098,743,cs),
(1098,774,o),
(1053,799,o),
(960,819,cs),
(846,843,o),
(789,910,o),
(789,1019,cs),
(789,1178,o),
(943,1232,o),
(1111,1252,cs),
(1117,1253,o),
(1122,1253,o),
(1127,1253,cs),
(1147,1253,o),
(1157,1247,o),
(1157,1233,cs),
(1157,1229,o),
(1156,1224,o),
(1154,1218,cs),
(1117,1112,l),
(951,1096,o),
(866,1063,o),
(866,1009,cs),
(866,977,o),
(918,954,o),
(1020,936,cs),
(1129,917,o),
(1185,854,o),
(1185,745,cs)
);
},
{
closed = 1;
nodes = (
(1536,-25,o),
(1264,-57,o),
(831,-57,cs),
(346,-57,o),
(100,66,o),
(100,324,cs),
(100,423,o),
(135,544,o),
(204,647,c),
(263,624,l),
(227,532,o),
(208,461,o),
(208,398,cs),
(208,236,o),
(419,141,o),
(835,141,cs),
(1293,141,o),
(1611,181,o),
(1611,424,cs),
(1611,455,o),
(1609,509,o),
(1607,589,cs),
(1591,1015,o),
(1584,1271,o),
(1566,1390,c),
(1678,1507,ls),
(1690.25,1518.74,o),
(1697,1526,o),
(1703,1526,cs),
(1711,1526,o),
(1714,1516,o),
(1714,1495,cs),
(1724,585,ls),
(1727,317,o),
(1762,199,o),
(1939,199,cs),
(1973,199,ls),
(1999,199,o),
(2002,167,o),
(2002,102,cs),
(2002,95,ls),
(2002,32,o),
(1999,0,o),
(1973,0,cs),
(1939,0,ls),
(1794,0,o),
(1714,57,o),
(1655,202,c)
);
}
);
width = 1967;
}
);
}
{
glyphname = "kaf-ar.init";
layers = (
{
anchors = (
{
name = "Anchor-10";
pos = (203.184,1443.47);
},
{
name = "Anchor-7";
pos = (344.687,-250.871);
}
);
layerId = m001;
shapes = (
{
closed = 1;
nodes = (
(138,199,ls),
(345,199,o),
(610,239,o),
(610,383,cs),
(610,500,o),
(294,791,o),
(51,977,cs),
(32,992,o),
(26,1011,o),
(26,1026,cs),
(26,1037,o),
(44,1084,o),
(66,1156,cs),
(69,1168,o),
(75,1176,o),
(83,1179,cs),
(879,1515,ls),
(893,1521,o),
(899,1517,o),
(897,1504,cs),
(871,1354,l),
(191,1069,l),
(534,817,o),
(702,567,o),
(702,403,cs),
(702,165,o),
(523,0,o),
(138,0,cs),
(-5,0,ls),
(-48,0,o),
(-50,32,o),
(-50,94,cs),
(-50,104,ls),
(-50,167,o),
(-47,199,o),
(-5,199,cs)
);
}
);
width = 957;
},
{
anchors = (
{
name = "Anchor-10";
pos = (232.813,1528.15);
},
{
name = "Anchor-7";
pos = (340.972,-280.152);
}
);
layerId = "D346AEB9-DD6D-429C-AFEE-90B4948468D3";
shapes = (
{
closed = 1;
nodes = (
(138,333,ls),
(326,333,o),
(577,335,o),
(577,451,cs),
(577,544,o),
(238,800,o),
(45,940,cs),
(26,954,o),
(16,978,o),
(16,997,cs),
(16,1001,o),
(17,1006,o),
(18,1010,cs),
(76,1204,ls),
(82,1225,o),
(93,1238,o),
(105,1243,cs),
(871,1568,ls),
(897,1579,o),
(902,1568,o),
(897,1539,cs),
(860,1319,l),
(280,1078,l),
(588,830,o),
(725,611,o),
(725,474,cs),
(725,171,o),
(529,0,o),
(138,0,cs),
(-5,0,ls),
(-48,0,o),
(-50,38,o),
(-50,113,cs),
(-50,219,ls),
(-50,295,o),
(-48,333,o),
(-5,333,cs)
);
}
);
width = 957;
}
);
}
{
glyphname = "kaf-ar.medi";
layers = (
{
anchors = (
{
name = "Anchor-10";
pos = (203.184,1443.47);
},
{
name = "Anchor-7";
pos = (344.687,-250.871);
}
);
layerId = m001;
shapes = (
{
closed = 1;
nodes = (
(138,199,ls),
(345,199,o),
(610,239,o),
(610,383,cs),
(610,500,o),
(211,814,o),
(51,977,cs),
(34,994,o),
(26,1011,o),
(26,1026,cs),
(26,1036.43,o),
(43.974,1084.41,o),
(66,1156,cs),
(69,1168,o),
(75,1176,o),
(83,1179,cs),
(879,1515,ls),
(893,1521,o),
(899,1517,o),
(897,1504,cs),
(871,1354,l),
(191,1069,l),
(418,857,o),
(600,671,o),
(755,492,cs),
(940.249,278.068,o),
(1086,213,o),
(1233,201,cs),
(1257,199,ls),
(1283,197,o),
(1286,167,o),
(1286,102,cs),
(1286,95,ls),
(1286,32,o),
(1283,0,o),
(1257,0,cs),
(1234,0,ls),
(1029,0,o),
(851,118,o),
(703,353,c),
(657,118,o),
(481,0,o),
(138,0,cs),
(-5,0,ls),
(-48,0,o),
(-50,32,o),
(-50,94,cs),
(-50,104,ls),
(-50,167,o),
(-47,199,o),
(-5,199,cs)
);
}
);
width = 1251;
}
);
}
{
glyphname = "kashidaFina-ar";
layers = (
{
anchors = (
{
name = "Anchor-10";
pos = (369,1242);
},
{
name = "Anchor-7";
pos = (377,-188);
}
);
layerId = m001;
shapes = (
{
closed = 1;
nodes = (
(309,275,o),
(439,180,o),
(699,180,cs),
(790,180,l),
(790,3,l),
(686,3,ls),
(296,3,o),
(101,150,o),
(101,444,cs),
(101,481,l),
(309,481,l),
(309,464,ls)
);
}
);
width = 785;
},
{
anchors = (
{
name = "Anchor-10";
pos = (369,1242);
},
{
name = "Anchor-7";
pos = (377,-188);
}
);
layerId = "D346AEB9-DD6D-429C-AFEE-90B4948468D3";
shapes = (
{
closed = 1;
nodes = (
(309,275,o),
(439,180,o),
(699,180,cs),
(790,180,l),
(790,3,l),
(686,3,ls),
(296,3,o),
(101,150,o),
(101,444,cs),
(101,481,l),
(309,481,l),
(309,464,ls)
);
}
);
width = 785;
}
);
}
{
glyphname = "keheh-ar.fina";
layers = (
{
anchors = (
{
name = "Anchor-10";
pos = (1195.31,1454.92);
},
{
name = "Anchor-7";
pos = (886.157,-267.146);
}
);
layerId = m001;
shapes = (
{
closed = 1;
nodes = (
(1097,1168,o),
(1104,1174,o),
(1111,1177,cs),
(1907,1513,ls),
(1921,1519,o),
(1928,1515,o),
(1926,1502,cs),
(1900,1352,l),
(1219,1067,l),
(1446,855,o),
(1628,669,o),
(1783,490,cs),
(1968.25,276.067,o),
(2114,199,o),
(2261,199,cs),
(2284,199,ls),
(2310,199,o),
(2313,167,o),
(2313,102,cs),
(2313,95,ls),
(2313,32,o),
(2310,0,o),
(2284,0,cs),
(2262,0,ls),
(2059,0,o),
(1909,84,o),
(1731,331,c),
(1662,63,o),
(1280,-56,o),
(838,-56,cs),
(354,-56,o),
(110,68,o),
(110,325,cs),
(110,424,o),
(145,545,o),
(214,648,c),
(273,625,l),
(237,533,o),
(218,462,o),
(218,399,cs),
(218,237,o),
(429,142,o),
(845,142,cs),
(1236,142,o),
(1639,216,o),
(1639,388,cs),
(1639,489,o),
(1205,848,o),
(1078,976,cs),
(1061,993,o),
(1052,1009,o),
(1052,1023,c),
(1093,1155,ls)
);
}
);
width = 2278;
}
);
}
{
glyphname = "lam-ar.fina";
layers = (
{
anchors = (
{
name = "Anchor-10";
pos = (596.527,1034.82);
},
{
name = "Anchor-7";
pos = (646.427,-790.57);
}
);
layerId = m001;
shapes = (
{
closed = 1;
nodes = (
(1174,1511,ls),
(1201,1540,o),
(1218.46,1547,o),
(1219,1491,cs),
(1228,386,ls),
(1229.02,261,o),
(1294,199,o),
(1457,199,cs),
(1480,199,ls),
(1506,199,o),
(1510,167,o),
(1510,102,cs),
(1510,95,ls),
(1510,32,o),
(1506,0,o),
(1480,0,cs),
(1457,0,ls),
(1345,0,o),
(1265,35,o),
(1235,104,c),
(1239,-71,ls),
(1247,-415,o),
(973,-599,o),
(623,-599,cs),
(281,-599,o),
(110,-460,o),
(110,-181,cs),
(110,-39,o),
(154,88,o),
(204,202,c),
(261,178,l),
(227,61,o),
(210,-26,o),
(210,-94,cs),
(210,-299,o),
(350,-401,o),
(629,-401,cs),
(873,-401,o),
(1043,-316,o),
(1139,-189,c),
(1105,752,o),
(1086,1261,o),
(1061,1389,c)
);
}
);
width = 1475;
},
{
anchors = (
{
name = "Anchor-10";
pos = (596.527,1034.82);
},
{
name = "Anchor-7";
pos = (646.427,-790.57);
}
);
layerId = "D346AEB9-DD6D-429C-AFEE-90B4948468D3";
shapes = (
{
closed = 1;
nodes = (
(1156,1529,ls),
(1213.42,1589.61,o),
(1233.91,1609.48,o),
(1235,1504,cs),
(1254,510,ls),
(1256.26,392.005,o),
(1307,333,o),
(1457,333,cs),
(1480,333,ls),
(1507,333,o),
(1510,294,o),
(1510,217,cs),
(1510,114,ls),
(1510,38,o),
(1507,0,o),
(1480,0,cs),
(1458,0,ls),
(1356,0,o),
(1306,21,o),
(1260,63,c),
(1261,18,ls),
(1273,-388,o),
(994,-600,o),
(625,-600,cs),
(289,-600,o),
(98,-464,o),
(98,-161,cs),
(98,-43,o),
(134,98,o),
(205,261,c),
(295,223,l),
(262,140,o),
(240,74,o),
(240,-19,cs),
(240,-213,o),
(398,-288,o),
(638,-288,cs),
(875,-288,o),
(1034,-234,o),
(1115,-127,c),
(1072,626,o),
(1031,1137,o),
(994,1358,c)
);
}
);
width = 1475;
}
);
}
{
glyphname = "lam-ar.init";
layers = (
{
anchors = (
{
name = "Anchor-10";
pos = (283.792,1638.77);
},
{
name = "Anchor-7";
pos = (190.901,-216.037);
}
);
layerId = m001;
shapes = (
{
closed = 1;
nodes = (
(66,199,ls),
(255,199,o),
(288,227,o),
(288,376,cs),
(288,545.596,o),
(250.227,1242.87,o),
(221,1389,c),
(334,1511,ls),
(361,1540,o),
(378.465,1547,o),
(379,1491,cs),
(405,558,ls),
(406.254,513.007,o),
(409,461,o),
(409,421,cs),
(409,152,o),
(345,0,o),
(66,0,cs),
(-5,0,ls),
(-48,0,o),
(-50,32,o),
(-50,94,cs),
(-50,104,ls),
(-50,167,o),
(-47,199,o),
(-5,199,cs)
);
}
);
width = 569;
}
);
}
{
glyphname = "lam-ar.medi";
layers = (
{
anchors = (
{
name = "Anchor-10";
pos = (304.953,1629.44);
},
{
name = "Anchor-7";
pos = (251.019,-201.037);
}
);
layerId = m001;
shapes = (
{
closed = 1;
nodes = (
(66,199,ls),
(221,199,o),
(298,273,o),
(298,421,cs),
(298,654.152,o),
(260.15,1270.22,o),
(236,1390,c),
(349,1512,ls),
(377,1540,o),
(393.108,1548,o),
(394,1492,cs),
(411,425,ls),
(413.39,275.022,o),
(459,199,o),
(610,199,cs),
(652,199,ls),
(678,199,o),
(681,167,o),
(681,102,cs),
(681,95,ls),
(681,32,o),
(678,0,o),
(652,0,cs),
(610,0,ls),
(476,0,o),
(409,50,o),
(349,150,c),
(274,50,o),
(180,0,o),
(66,0,cs),
(-5,0,ls),
(-48,0,o),
(-50,32,o),
(-50,94,cs),
(-50,104,ls),
(-50,167,o),
(-47,199,o),
(-5,199,cs)
);
}
);
width = 646;
}
);
}
{
glyphname = "lam_alef-ar.fina";
layers = (
{
anchors = (
{
name = "Anchor-6";
pos = (306.134,-262.649);
},
{
name = "Anchor-9";
pos = (223.848,1607.87);
}
);
layerId = m001;
shapes = (
{
closed = 1;
nodes = (
(1026,1511,ls),
(1053,1540,o),
(1070.46,1547,o),
(1071,1491,cs),
(1098,420,ls),
(1101.16,273.003,o),
(1135,199,o),
(1290,199,cs),
(1330,199,ls),
(1356,199,o),
(1360,167,o),
(1360,102,cs),
(1360,95,ls),
(1360,32,o),
(1356,0,o),
(1330,0,cs),
(1291,0,ls),
(1089,0,o),
(992,145,o),
(989,434,c),
(820,162,o),
(596,3,o),
(367,3,cs),
(346,3,o),
(327,7,o),
(312,14,cs),
(120,105,ls),
(97,116,o),
(88,128,o),
(88,136,cs),
(88,145,o),
(111,151,o),
(127,153,cs),
(371,182,o),
(537,224,o),
(688,315,c),
(595,597,o),
(427,907,o),
(134,1246,c),
(227,1442,l),
(508,1063,o),
(689,674,o),
(771,358,c),
(906,459,o),
(973,540,o),
(973,601,cs),
(973,873,o),
(925,1318,o),
(913,1389,c)
);
}
);
width = 1325;
}
);
}
{
glyphname = "lam_alef-ar";
layers = (
{
anchors = (
{
name = "Anchor-6";
pos = (990.16,-214.8);
},
{
name = "Anchor-9";
pos = (1003.97,1638.48);
}
);
layerId = m001;
shapes = (
{
closed = 1;
nodes = (
(1093,624,ls),
(1093.38,609.01,o),
(1094,594,o),
(1094,580,cs),
(1094,196,o),
(850,3,o),
(367,3,cs),
(346,3,o),
(327,7,o),
(312,14,cs),
(120,105,ls),
(97,116,o),
(88,128,o),
(88,136,cs),
(88,145,o),
(101,151,o),
(127,153,cs),
(331,170,o),
(544,204,o),
(709,250,c),
(607,584,o),
(421,915,o),
(133,1245,c),
(227,1442,l),
(509,1058,o),
(698,671,o),
(793,282,c),
(920,340,o),
(984,414,o),
(984,501,cs),
(984,747,o),
(920,1351,o),
(913,1389,c),
(1026,1511,ls),
(1052.92,1540.07,o),
(1070.46,1547,o),
(1071,1491,cs)
);
}
);
width = 1254;
}
);
}
{
glyphname = "meem-ar.fina";
layers = (
{
anchors = (
{
name = "Anchor-10";
pos = (651.47,1032.19);
},
{
name = "Anchor-7";
pos = (211.445,-867.926);
}
);
layerId = m001;
shapes = (
{
closed = 1;
nodes = (
(567,-247,o),
(513,-70,o),
(513,160,cs),
(513,213,o),
(514,244,o),
(516,255,c),
(378,216,o),
(286,156,o),
(240,75,c),
(255,-513,ls),
(255,-515,o),
(255,-518,o),
(255,-520,cs),
(255,-607,o),
(218,-693,o),
(143,-776,cs),
(133,-787,o),
(128,-782,o),
(127,-760,cs),
(112,-274,ls),
(110,-221,o),
(110,-173,o),
(110,-129,cs),
(110,95,o),
(125,168,o),
(245,291,cs),
(327,374,o),
(423,420,o),
(532,430,c),
(547,498,o),
(559,540,o),
(575,572,cs),
(583,587,o),
(592,588,o),
(604,577,cs),
(867,378,ls),
(1063.51,229.312,o),
(1133,199,o),
(1227,199,cs),
(1240,199,ls),
(1266,199,o),
(1270,167,o),
(1270,102,cs),
(1270,95,ls),
(1270,32,o),
(1266,0,o),
(1240,0,cs),
(1228,0,ls),
(1141,0,o),
(1114,12,o),
(1020,65,c),
(985,-136,o),
(893,-247,o),
(763,-247,cs)
);
},
{
closed = 1;
nodes = (
(830,-61,o),
(909,-17,o),
(909,74,cs),
(909,113,o),
(892.62,153.372,o),
(851,183,cs),
(792,225,o),
(699,282,o),
(624,337,c),
(619,287,o),
(617,230,o),
(617,165,cs),
(617,75,o),
(617,-61,o),
(765,-61,cs)
);
}
);
width = 1235;
},
{
anchors = (
{
name = "Anchor-10";
pos = (651.47,1032.19);
},
{
name = "Anchor-7";
pos = (214.624,-829.684);
}
);
layerId = "D346AEB9-DD6D-429C-AFEE-90B4948468D3";
shapes = (
{
closed = 1;
nodes = (
(1195,0,ls),
(1133,0,o),
(1091,13,o),
(1037,57,c),
(996,-139,o),
(893,-248,o),
(761,-248,cs),
(566,-248,o),
(500,-102,o),
(499,124,cs),
(499,236,l),
(378,198,o),
(298,147,o),
(262,87,c),
(299,-400,ls),
(300,-409,o),
(300,-418,o),
(300,-427,cs),
(300,-540,o),
(248,-654,o),
(145,-768,cs),
(137,-777,o),
(130,-781,o),
(125,-781,cs),
(117,-781,o),
(113,-770,o),
(112,-746,cs),
(96,-256,ls),
(94,-209,o),
(94,-165,o),
(94,-124,cs),
(94,117,o),
(104,229,o),
(238,366,cs),
(316,446,o),
(413,492,o),
(530,506,c),
(555,620,o),
(572,679,o),
(582,680,cs),
(590,681,o),
(604,673,o),
(624,658,cs),
(886,461,ls),
(1026,356,o),
(1123,333,o),
(1227,333,cs),
(1240,333,ls),
(1267,333,o),
(1270,294,o),
(1270,217,cs),
(1270,114,ls),
(1270,38,o),
(1267,0,o),
(1240,0,cs)
);
},
{
closed = 1;
nodes = (
(639,85,o),
(675,8,o),
(787,8,cs),
(827.829,8,o),
(893.019,44.749,o),
(893.019,101.577,cs),
(893.019,125.591,o),
(889.932,149.812,o),
(837,186,cs),
(739,253,o),
(647,311,o),
(643,314,c),
(640,275,o),
(639,231,o),
(639,201,cs)
);
}
);
width = 1235;
}
);
}
{
glyphname = "meem-ar.init";
layers = (
{
anchors = (
{
name = bottom;
pos = (517.225,-257.984);
},
{
name = top;
pos = (581.194,1037.38);
}
);
layerId = m001;
shapes = (
{
closed = 1;
nodes = (
(31.538,199.002,ls),
(164,199,o),
(257.688,227.272,o),
(313.994,323.812,cs),
(390.235,452.891,o),
(499.498,661.016,o),
(652.273,661.016,cs),
(794.482,661.016,o),
(921,501.947,o),
(921,294,cs),
(921,109.791,o),
(827.313,1.97,o),
(680.523,1.97,cs),
(574.585,1.97,o),
(447.689,75.15,o),
(338.315,146.87,c),
(272.113,35.623,o),
(167,0,o),
(23.554,0,cs),
(-6,0,ls),
(-49,0,o),
(-51,32,o),
(-51,94,cs),
(-51,104,ls),
(-51,167,o),
(-48,199,o),
(-6,199,cs)
);
},
{
closed = 1;
nodes = (
(781.445,170.338,o),
(825.352,206.182,o),
(825.352,260.71,cs),
(825.352,328.062,o),
(726.004,480.895,o),
(627.143,480.895,cs),
(555.363,480.895,o),
(482.941,400.865,o),
(434.261,312.079,c),
(562.847,217.585,o),
(660.86,170.338,o),
(728.302,170.338,cs)
);
}
);
width = 1031;
},
{
anchors = (
{
name = bottom;
pos = (517.225,-257.984);
},
{
name = top;
pos = (581.194,1037.38);
}
);
layerId = "D346AEB9-DD6D-429C-AFEE-90B4948468D3";
shapes = (
{
closed = 1;
nodes = (
(32,333,ls),
(166,333,o),
(256,353,o),
(302,433,cs),
(384,571,o),
(493,785,o),
(658,785,cs),
(827,785,o),
(948,574,o),
(948,358,cs),
(948,157.548,o),
(852.089,2,o),
(682,2,cs),
(574.35,2,o),
(448.581,73.903,o),
(340,144,c),
(269,38,o),
(167,0,o),
(24,0,cs),
(-5,0,ls),
(-48,0,o),
(-50,38,o),
(-50,113,cs),
(-50,219,ls),
(-50,295,o),
(-48,333,o),
(-5,333,cs)
);
},
{
closed = 1;
nodes = (
(766,306,o),
(803,324,o),
(803,361,cs),
(803,448,o),
(670,539,o),
(620,539,cs),
(545,539,o),
(496,473,o),
(459,418,c),
(580,343,o),
(670,306,o),
(729,306,cs)
);
}
);
width = 1031;
}
);
}
{
glyphname = "meem-ar.medi";
layers = (
{
anchors = (
{
name = "Anchor-10";
pos = (581.194,986.32);
},
{
name = "Anchor-7";
pos = (492.041,-296.178);
}
);
layerId = m001;
shapes = (
{
closed = 1;
nodes = (
(42,199,ls),
(190,199,o),
(262,207,o),
(307,278,cs),
(395,416,o),
(480,582,o),
(603,582,cs),
(745,582,o),
(837,410,o),
(915,285,cs),
(951,226,o),
(984,199,o),
(1107,199,cs),
(1128,199,ls),
(1154,199,o),
(1158,167,o),
(1158,102,cs),
(1158,95,ls),
(1158,32,o),
(1154,0,o),
(1128,0,cs),
(1108,0,ls),
(1027,0,o),
(965,34,o),
(882,100,c),
(832,8,o),
(773,-68,o),
(654,-68,cs),
(563,-68,o),
(468,-17,o),
(317,76,c),
(236,25,o),
(146,0,o),
(45,0,cs),
(-5,0,ls),
(-48,0,o),
(-50,32,o),
(-50,94,cs),
(-50,104,ls),
(-50,167,o),
(-47,199,o),
(-5,199,cs)
);
},
{
closed = 1;
nodes = (
(753,102,o),
(798,133,o),
(798,187,cs),
(798,241,o),
(690,402,o),
(597,402,cs),
(539,402,o),
(454,325,o),
(408,234,c),
(536,146,o),
(634,102,o),
(701,102,cs)
);
}
);
width = 1123;
}
);
}
{
glyphname = "noonghunna-ar.fina";
layers = (
{
anchors = (
{
name = "Anchor-10";
pos = (564.681,1020.29);
},
{
name = "Anchor-7";
pos = (437.809,-1027.56);
}
);
layerId = m001;
shapes = (
{
closed = 1;
nodes = (
(1238,225,o),
(1321,202,o),
(1462,200,cs),
(1485,199,ls),
(1511,198,o),
(1513,166,o),
(1513,102,cs),
(1513,95,ls),
(1513,32,o),
(1511,0,o),
(1485,0,cs),
(1452,0,ls),
(1360,0,o),
(1312,21,o),
(1263,61,c),
(1269,21,o),
(1271,-18,o),
(1271,-55,cs),
(1271,-407,o),
(995,-599,o),
(653,-599,cs),
(291,-599,o),
(110,-460,o),
(110,-181,cs),
(110,-68,o),
(141,60,o),
(204,202,c),
(261,178,l),
(227,61,o),
(210,-26,o),
(210,-94,cs),
(210,-299,o),
(360,-401,o),
(659,-401,cs),
(875,-401,o),
(1088,-319,o),
(1181,-187,c),
(1177,-93,o),
(1118,72,o),
(1010,270,c),
(1094,404,ls),
(1110,429,o),
(1124,430,o),
(1137,405,cs),
(1171,339,o),
(1195,294,o),
(1210,269,cs)
);
}
);
width = 1479;
}
);
}
{
glyphname = "qafDotless-ar.fina";
layers = (
{
anchors = (
{
name = "Anchor-10";
pos = (503.98,764.946);
},
{
name = "Anchor-7";
pos = (423.924,-900.824);
}
);
layerId = m001;
shapes = (
{
closed = 1;
nodes = (
(1180,-170,o),
(1181,-143,o),
(1181,-119,cs),
(1181,-78,o),
(1180,-42,o),
(1177,0,c),
(1026,0,ls),
(843,0,o),
(739,64,o),
(739,235,cs),
(739,446,o),
(852,646,o),
(995,646,cs),
(1140,646,o),
(1254,503,o),
(1280,199,c),
(1433,199,ls),
(1459,199,o),
(1462,167,o),
(1462,102,cs),
(1462,95,ls),
(1462,32,o),
(1459,0,o),
(1433,0,cs),
(1276,-1,l),
(1273,-414,o),
(994,-599,o),
(653,-599,cs),
(291,-599,o),
(110,-460,o),
(110,-181,cs),
(110,-68,o),
(141,60,o),
(204,202,c),
(261,178,l),
(227,61,o),
(210,-26,o),
(210,-94,cs),
(210,-299,o),
(358,-401,o),
(653,-401,cs),
(872,-401,o),
(1088,-322,o),
(1179,-187,c)
);
},
{
closed = 1;
nodes = (
(842,212,o),
(911,197,o),
(1029,196,cs),
(1092,196,o),
(1140,197,o),
(1169,198,c),
(1156,329,o),
(1101,452,o),
(986,452,cs),
(901,452,o),
(842,375,o),
(842,280,cs)
);
}
);
width = 1427;
}
);
}
{
glyphname = "reh-ar.fina";
layers = (
{
anchors = (
{
name = "Anchor-10";
pos = (530.105,897.34);
},
{
name = "Anchor-7";
pos = (341.096,-713.978);
}
);
layerId = m001;
shapes = (
{
closed = 1;
nodes = (
(772,0,o),
(727,17,o),
(689,51,c),
(688,-175,o),
(432,-544,o),
(241,-544,cs),
(185,-544,o),
(133,-532,o),
(59,-510,cs),
(22,-499,o),
(-1,-487,o),
(-8,-474,cs),
(-13,-465,o),
(-10,-458,o),
(2,-455,cs),
(384,-359,o),
(594,-101,o),
(594,53,cs),
(594,112,o),
(555,178,o),
(481,262,c),
(499,296,o),
(526,354,o),
(565,437,cs),
(572,453,o),
(582,451,o),
(594,432,cs),
(618,391,o),
(649,330,o),
(677,284,cs),
(711,227,o),
(760,199,o),
(862,199,cs),
(887,199,ls),
(913,199,o),
(917,167,o),
(917,102,cs),
(917,95,ls),
(917,32,o),
(913,0,o),
(887,0,cs),
(862,0,ls)
);
}
);
width = 882;
}
);
}
{
glyphname = "sad-ar.fina";
layers = (
{
anchors = (
{
name = "Anchor-10";
pos = (2047.94,1235.14);
},
{
name = "Anchor-7";
pos = (646.427,-790.57);
}
);
layerId = m001;
shapes = (
{
closed = 1;
nodes = (
(2036,20,o),
(1812,0,o),
(1618,0,cs),
(1520,0,ls),
(1399,0,o),
(1313,21,o),
(1263,61,c),
(1269,21,o),
(1271,-18,o),
(1271,-55,cs),
(1271,-407,o),
(995,-599,o),
(653,-599,cs),
(291,-599,o),
(110,-460,o),
(110,-181,cs),
(110,-68,o),
(141,60,o),
(204,202,c),
(261,178,l),
(227,61,o),
(210,-26,o),
(210,-94,cs),
(210,-299,o),
(360,-401,o),
(659,-401,cs),
(875,-401,o),
(1088,-319,o),
(1181,-187,c),
(1177,-93,o),
(1118,72,o),
(1010,270,c),
(1094,404,ls),
(1110,429,o),
(1124,430,o),
(1137,405,cs),
(1171,339,o),
(1195,294,o),
(1210,269,cs),
(1235,226,o),
(1307,205,o),
(1423,201,c),
(1633,483,o),
(1906,749,o),
(2130,749,cs),
(2348,749,o),
(2459,597,o),
(2462,428,cs),
(2462,332,o),
(2431,258,o),
(2375,199,c),
(2654,199,ls),
(2680,199,o),
(2682,167,o),
(2682,102,cs),
(2682,95,ls),
(2682,32,o),
(2680,0,o),
(2654,0,cs),
(2545,0,ls),
(2407,0,o),
(2274,41,o),
(2208,89,c)
);
},
{
closed = 1;
nodes = (
(1625,201,ls),
(2091,201,o),
(2340,236,o),
(2340,353,cs),
(2340,462,o),
(2230,550,o),
(2080,550,cs),
(1863,550,o),
(1675,353,o),
(1533,201,c)
);
}
);
width = 2647;
}
);
}
{
glyphname = "sad-ar.init";
layers = (
{
anchors = (
{
name = "Anchor-10";
pos = (1286.92,1258.35);
},
{
name = "Anchor-7";
pos = (786.645,-230.314);
}
);
layerId = m001;
shapes = (
{
closed = 1;
nodes = (
(57,199,ls),
(256,199,o),
(338,266,o),
(342,398,cs),
(345,489,l),
(426,489,l),
(431,398,ls),
(437,277,o),
(524,212,o),
(693,201,c),
(903,483,o),
(1176,749,o),
(1400,749,cs),
(1618,749,o),
(1730,597,o),
(1730,428,cs),
(1730,72,o),
(1254,0,o),
(888,0,cs),
(790,0,ls),
(594,0,o),
(462,51,o),
(390,152,c),
(324,51,o),
(226,0,o),
(57,0,cs),
(-5,0,ls),
(-48,0,o),
(-50,32,o),
(-50,94,cs),
(-50,104,ls),
(-50,167,o),
(-47,199,o),
(-5,199,cs)
);
},
{
closed = 1;
nodes = (
(895,201,ls),
(1361,201,o),
(1610,236,o),
(1610,353,cs),
(1610,462,o),
(1500,550,o),
(1350,550,cs),
(1133,550,o),
(945,353,o),
(803,201,c)
);
}
);
width = 1840;
}
);
}
{
glyphname = "sad-ar.medi";
layers = (
{
anchors = (
{
name = "Anchor-10";
pos = (1286.92,1258.35);
},
{
name = "Anchor-7";
pos = (783.645,-245.314);
}
);
layerId = m001;
shapes = (
{
closed = 1;
nodes = (
(37,199,ls),
(236,199,o),
(338,266,o),
(342,398,cs),
(345,489,l),
(426,489,l),
(431,398,ls),
(437,277,o),
(524,212,o),
(693,201,c),
(903,483,o),
(1176,749,o),
(1400,749,cs),
(1618,749,o),
(1729,597,o),
(1732,428,cs),
(1732,332,o),
(1701,258,o),
(1645,199,c),
(1924,199,ls),
(1950,199,o),
(1954,167,o),
(1954,102,cs),
(1954,95,ls),
(1954,32,o),
(1950,0,o),
(1924,0,cs),
(1815,0,ls),
(1677,0,o),
(1544,41,o),
(1478,89,c),
(1306,20,o),
(1082,0,o),
(888,0,cs),
(790,0,ls),
(594,0,o),
(462,51,o),
(390,152,c),
(324,51,o),
(206,0,o),
(37,0,cs),
(-5,0,ls),
(-48,0,o),
(-50,32,o),
(-50,94,cs),
(-50,104,ls),
(-50,167,o),
(-47,199,o),
(-5,199,cs)
);
},
{
closed = 1;
nodes = (
(895,201,ls),
(1361,201,o),
(1610,236,o),
(1610,353,cs),
(1610,462,o),
(1500,550,o),
(1350,550,cs),
(1133,550,o),
(945,353,o),
(803,201,c)
);
}
);
width = 1919;
}
);
}
{
glyphname = "seen-ar.fina";
layers = (
{
anchors = (
{
name = "Anchor-10";
pos = (1697.94,1031.52);
},
{
name = "Anchor-7";
pos = (646.427,-790.57);
}
);
layerId = m001;
shapes = (
{
closed = 1;
nodes = (
(1802,2,o),
(1716,53,o),
(1660,155,c),
(1584,52,o),
(1505,-1,o),
(1421,-1,cs),
(1346,-1,o),
(1294,30,o),
(1263,61,c),
(1269,21,o),
(1271,-18,o),
(1271,-55,cs),
(1271,-407,o),
(995,-599,o),
(653,-599,cs),
(291,-599,o),
(110,-460,o),
(110,-181,cs),
(110,-68,o),
(141,60,o),
(204,202,c),
(261,178,l),
(227,61,o),
(210,-26,o),
(210,-94,cs),
(210,-299,o),
(360,-401,o),
(659,-401,cs),
(875,-401,o),
(1088,-319,o),
(1181,-187,c),
(1177,-93,o),
(1118,72,o),
(1010,270,c),
(1094,404,ls),
(1110,429,o),
(1124,430,o),
(1137,405,cs),
(1171,339,o),
(1195,294,o),
(1210,269,cs),
(1237,224,o),
(1307,201,o),
(1423,201,cs),
(1546,201,o),
(1616,256,o),
(1636,374,cs),
(1654,478,l),
(1738,466,l),
(1728,387,ls),
(1713,259,o),
(1782,202,o),
(1927,201,cs),
(2062,201,o),
(2131,267,o),
(2135,398,cs),
(2138,492,l),
(2218,492,l),
(2223,401,ls),
(2230,267,o),
(2296,200,o),
(2482,200,cs),
(2509,200,ls),
(2535,200,o),
(2538,168,o),
(2538,103,cs),
(2538,96,ls),
(2538,33,o),
(2535,1,o),
(2509,1,cs),
(2482,1,ls),
(2313,1,o),
(2229,52,o),
(2190,154,c),
(2128,52,o),
(2045,1,o),
(1920,1,cs)
);
}
);
width = 2503;
}
);
}
{
glyphname = "seen-ar.init";
layers = (
{
anchors = (
{
name = "Anchor-10";
pos = (931.855,1043.01);
},
{
name = "Anchor-7";
pos = (802.234,-248.015);
}
);
layerId = m001;
shapes = (
{
closed = 1;
nodes = (
(69,199,ls),
(273,199,o),
(365,249,o),
(383,350,cs),
(402,454,l),
(482,442,l),
(470,364,ls),
(468,353,o),
(468,342,o),
(468,332,cs),
(468,243,o),
(534,199,o),
(667,199,cs),
(806,199,o),
(885,257,o),
(905,372,cs),
(923,476,l),
(1007,464,l),
(997,385,ls),
(996,374,o),
(995,363,o),
(995,353,cs),
(995,251,o),
(1063,200,o),
(1198,200,cs),
(1300.28,200,o),
(1373,221.913,o),
(1373,291,cs),
(1373,341.718,o),
(1325.17,459.022,o),
(1296,524,c),
(1378,670,ls),
(1390,691,o),
(1400,694,o),
(1409,677,cs),
(1472,557,o),
(1492,448,o),
(1492,325,cs),
(1492,162.146,o),
(1342.23,0,o),
(1190,0,cs),
(1072,0,o),
(984,50,o),
(929,152,c),
(855,51,o),
(764,0,o),
(658,0,cs),
(527,0,o),
(439,51,o),
(394,152,c),
(334,50,o),
(239,0,o),
(69,0,cs),
(-5,0,ls),
(-48,0,o),
(-50,32,o),
(-50,94,cs),
(-50,104,ls),
(-50,167,o),
(-47,199,o),
(-5,199,cs)
);
}
);
width = 1602;
}
);
}
{
glyphname = "seen-ar.medi";
layers = (
{
anchors = (
{
name = "Anchor-10";
pos = (931.855,1039.01);
},
{
name = "Anchor-7";
pos = (812.234,-219.803);
}
);
layerId = m001;
shapes = (
{
closed = 1;
nodes = (
(69,199,ls),
(273,199,o),
(365,249,o),
(383,350,cs),
(402,454,l),
(482,442,l),
(470,364,ls),
(468,353,o),
(468,342,o),
(468,332,cs),
(468,243,o),
(534,199,o),
(667,199,cs),
(806,199,o),
(885,257,o),
(905,372,cs),
(923,476,l),
(1007,464,l),
(997,385,ls),
(996,374,o),
(995,363,o),
(995,353,cs),
(995,251,o),
(1063,200,o),
(1198,200,cs),
(1332,200,o),
(1402,266,o),
(1406,397,cs),
(1409,491,l),
(1489,491,l),
(1494,400,ls),
(1501,266,o),
(1567,199,o),
(1753,199,cs),
(1780,199,ls),
(1806,199,o),
(1809,167,o),
(1809,102,cs),
(1809,95,ls),
(1809,32,o),
(1806,0,o),
(1780,0,cs),
(1753,0,ls),
(1584,0,o),
(1500,51,o),
(1461,153,c),
(1399,51,o),
(1315,0,o),
(1190,0,cs),
(1072,0,o),
(984,50,o),
(929,152,c),
(855,51,o),
(764,0,o),
(658,0,cs),
(527,0,o),
(439,51,o),
(394,152,c),
(334,50,o),
(239,0,o),
(69,0,cs),
(-5,0,ls),
(-48,0,o),
(-50,32,o),
(-50,94,cs),
(-50,104,ls),
(-50,167,o),
(-47,199,o),
(-5,199,cs)
);
}
);
width = 1774;
}
);
}
{
glyphname = "tah-ar.fina";
layers = (
{
anchors = (
{
name = "Anchor-10";
pos = (568.377,1634.21);
},
{
name = "Anchor-7";
pos = (745.854,-221.413);
}
);
layerId = m001;
shapes = (
{
closed = 1;
nodes = (
(845,638,o),
(1016,749,o),
(1166,749,cs),
(1384,749,o),
(1495,597,o),
(1495,428,cs),
(1495,332,o),
(1464,258,o),
(1408,199,c),
(1688,199,ls),
(1714,199,o),
(1716,167,o),
(1716,102,cs),
(1716,95,ls),
(1716,32,o),
(1714,0,o),
(1688,0,cs),
(1579,0,ls),
(1441,0,o),
(1307,41,o),
(1241,89,c),
(1077,20,o),
(857,0,o),
(654,0,cs),
(395,0,ls),
(282,0,o),
(219,54,o),
(176,93,cs),
(103,160,ls),
(82,179,o),
(98,199,o),
(125,199,cs),
(458,201,l),
(486,236,o),
(513,271,o),
(542,306,c),
(534,904,o),
(492,1324,o),
(478,1390,c),
(591,1512,ls),
(618,1541,o),
(635,1548,o),
(636,1492,cs),
(653,415,l)
);
},
{
closed = 1;
nodes = (
(661,201,ls),
(1127,201,o),
(1375,236,o),
(1375,353,cs),
(1375,462,o),
(1266,550,o),
(1116,550,cs),
(899,550,o),
(710,353,o),
(568,201,c)
);
}
);
width = 1681;
}
);
}
{
glyphname = "tah-ar.init";
layers = (
{
anchors = (
{
name = "Anchor-10";
pos = (268.146,1637.21);
},
{
name = "Anchor-7";
pos = (480.623,-229.625);
}
);
layerId = m001;
shapes = (
{
closed = 1;
nodes = (
(167,201,l),
(195,236,o),
(224,271,o),
(251,306,c),
(243,904,o),
(201.343,1324.15,o),
(187,1390,c),
(300,1512,ls),
(326.925,1541.07,o),
(344,1548,o),
(345,1492,cs),
(362,415,l),
(556,638,o),
(725,749,o),
(875,749,cs),
(1093,749,o),
(1204,597,o),
(1204,428,cs),
(1204,72,o),
(752,0,o),
(363,0,cs),
(-5,0,ls),
(-48,0,o),
(-50,32,o),
(-50,94,cs),
(-50,104,ls),
(-50,167,o),
(-47,199,o),
(-5,199,cs)
);
},
{
closed = 1;
nodes = (
(370,201,ls),
(836,201,o),
(1084,236,o),
(1084,353,cs),
(1084,462,o),
(975,550,o),
(825,550,cs),
(608,550,o),
(419,353,o),
(277,201,c)
);
}
);
width = 1314;
},
{
anchors = (
{
name = "Anchor-10";
pos = (268.146,1637.21);
},
{
name = "Anchor-7";
pos = (460,-234.904);
}
);
layerId = "D346AEB9-DD6D-429C-AFEE-90B4948468D3";
shapes = (
{
closed = 1;
nodes = (
(155,335,l),
(176,362,o),
(197,390,o),
(220,417,c),
(213,733,o),
(193,1148,o),
(144,1358,c),
(306,1529,ls),
(364,1589,o),
(383,1609,o),
(385,1504,cs),
(401,611,l),
(571,799,o),
(737,893,o),
(877,893,cs),
(1086.2,893,o),
(1216.01,751.09,o),
(1216.01,532.518,cs),
(1216.01,157.903,o),
(881,0,o),
(391,0,cs),
(-5,0,ls),
(-48,0,o),
(-50,38,o),
(-50,113,cs),
(-50,219,ls),
(-50,295,o),
(-48,332,o),
(-5,333,cs)
);
},
{
closed = 1;
nodes = (
(594,335,ls),
(903,335,o),
(1061,369,o),
(1061,438,cs),
(1061,534,o),
(954,588,o),
(844,588,cs),
(621,588,o),
(454,449,o),
(314,335,c)
);
}
);
width = 1311;
}
);
}
{
glyphname = "tah-ar.medi";
layers = (
{
anchors = (
{
name = "Anchor-10";
pos = (268.146,1637.21);
},
{
name = "Anchor-7";
pos = (480.623,-229.625);
}
);
layerId = m001;
shapes = (
{
closed = 1;
nodes = (
(167,201,l),
(195,236,o),
(222,271,o),
(251,306,c),
(243,904,o),
(201,1324,o),
(187,1390,c),
(300,1512,ls),
(327,1541,o),
(344,1548,o),
(345,1492,cs),
(362,415,l),
(554,638,o),
(725,749,o),
(875,749,cs),
(1093,749,o),
(1204,597,o),
(1204,428,cs),
(1204,332,o),
(1173,259,o),
(1117,200,c),
(1397,199,ls),
(1423,199,o),
(1425,168,o),
(1425,103,cs),
(1425,95,ls),
(1425,32,o),
(1423,0,o),
(1397,0,cs),
(1288,0,ls),
(1150,0,o),
(1016,41,o),
(950,89,c),
(786,20,o),
(566,1,o),
(363,0,cs),
(-5,0,ls),
(-48,0,o),
(-50,32,o),
(-50,94,cs),
(-50,104,ls),
(-50,167,o),
(-47,198,o),
(-5,199,cs)
);
},
{
closed = 1;
nodes = (
(370,201,ls),
(836,201,o),
(1084,236,o),
(1084,353,cs),
(1084,462,o),
(975,550,o),
(825,550,cs),
(608,550,o),
(419,353,o),
(277,201,c)
);
}
);
width = 1390;
}
);
}
{
glyphname = "waw-ar.fina";
layers = (
{
anchors = (
{
name = "Anchor-10";
pos = (410.667,1026.67);
},
{
name = "Anchor-7";
pos = (351.096,-713.978);
}
);
layerId = m001;
shapes = (
{
closed = 1;
nodes = (
(564,645,o),
(674,503,o),
(700,199,c),
(849,199,ls),
(875,199,o),
(878,167,o),
(878,102,cs),
(878,95,ls),
(878,32,o),
(875,0,o),
(849,0,cs),
(690,0,l),
(661,-223,o),
(438,-544,o),
(253,-544,cs),
(198,-544,o),
(146,-532,o),
(71,-510,cs),
(33,-499,o),
(11,-487,o),
(4,-474,cs),
(-1,-465,o),
(1,-459,o),
(13,-455,cs),
(321,-363,o),
(516,-208,o),
(597,0,c),
(446,0,ls),
(263,0,o),
(160,64,o),
(160,235,cs),
(160,446,o),
(276,645,o),
(419,645,cs)
);
},
{
closed = 1;
nodes = (
(259,212,o),
(331,197,o),
(449,196,cs),
(512,196,o),
(560,197,o),
(589,198,c),
(576,329,o),
(521,451,o),
(406,451,cs),
(321,451,o),
(259,375,o),
(259,280,cs)
);
}
);
width = 843;
},
{
anchors = (
{
name = "Anchor-10";
pos = (414.667,1030.67);
},
{
name = "Anchor-7";
pos = (341.096,-713.978);
}
);
layerId = "D346AEB9-DD6D-429C-AFEE-90B4948468D3";
shapes = (
{
closed = 1;
nodes = (
(621,732,o),
(709,520,o),
(726,333,c),
(848,333,ls),
(875,333,o),
(878,294,o),
(878,217,cs),
(878,114,ls),
(878,38,o),
(875,0,o),
(848,0,cs),
(723,0,l),
(684,-201,o),
(620,-354,o),
(531,-460,cs),
(472,-530,o),
(431,-551,o),
(304,-551,cs),
(223,-551,o),
(-45,-524,o),
(-46,-473,cs),
(-46.132,-466.293,o),
(-28,-449,o),
(1,-440,cs),
(266,-353,o),
(456,-208,o),
(573,-5,c),
(461,-5,ls),
(249,-5,o),
(146,69,o),
(146,227,cs),
(146,433,o),
(234,732,o),
(431,732,cs)
);
},
{
closed = 1;
nodes = (
(267,336,o),
(333,320,o),
(466,320,cs),
(515,320,o),
(556,321,o),
(588,322,c),
(541,426,o),
(480,489,o),
(403,489,cs),
(332,489,o),
(267,421,o),
(267,368,cs)
);
}
);
width = 843;
}
);
}
{
glyphname = "yehFarsi-ar.fina.compact";
layers = (
{
anchors = (
{
name = "Anchor-10";
pos = (719.6,587.22);
},
{
name = "Anchor-7";
pos = (733.902,-802.086);
}
);
layerId = m001;
shapes = (
{
closed = 1;
nodes = (
(307,-625,o),
(110,-494,o),
(110,-231,cs),
(110,-118,o),
(141,10,o),
(204,152,c),
(261,128,l),
(227,11,o),
(210,-79,o),
(210,-143,cs),
(210,-336,o),
(376,-433,o),
(706,-433,cs),
(1140.97,-433,o),
(1315,-322.728,o),
(1315,-275,cs),
(1315,-259,o),
(1281,-261,o),
(1266,-259,cs),
(1052,-237,ls),
(958,-228,o),
(920,-186,o),
(920,-111,cs),
(920,-29.794,o),
(993.602,199,o),
(1209,199,cs),
(1488,199,ls),
(1514,199,o),
(1527,167,o),
(1527,102,cs),
(1527,95,ls),
(1527,32,o),
(1514,0,o),
(1488,0,cs),
(1469,0,ls),
(1388,0,o),
(1155.66,33,o),
(1094,33,cs),
(1062,33,o),
(1032,-1,o),
(1017,-93,c),
(1286,-121,ls),
(1365,-130,o),
(1411,-161,o),
(1411,-235,cs),
(1411,-383.383,o),
(1192.33,-625,o),
(699,-625,cs)
);
}
);
width = 1483;
}
);
}
